<svg width="40" height="24" viewBox="0 0 40 24" fill="none" xmlns="http://www.w3.org/2000/svg">
<rect opacity="0.06" width="40" height="24" rx="4" fill="black"/>
<path d="M12.2721 8.43787C11.9981 8.76214 11.5596 9.01789 11.1212 8.98136C11.0664 8.54292 11.2811 8.07707 11.5322 7.78935C11.8063 7.45595 12.2858 7.21846 12.674 7.2002C12.7197 7.6569 12.5416 8.10448 12.2721 8.43787ZM12.6694 9.06813C12.0346 9.03159 11.4911 9.42893 11.1897 9.42893C10.8837 9.42893 10.4224 9.0864 9.92006 9.09553C9.26697 9.10467 8.65955 9.4746 8.32615 10.0638C7.64109 11.2421 8.14803 12.9867 8.81026 13.9458C9.13452 14.4207 9.52273 14.9414 10.0342 14.9231C10.5183 14.9049 10.7102 14.608 11.2948 14.608C11.8839 14.608 12.0529 14.9231 12.5644 14.914C13.0942 14.9049 13.4276 14.439 13.7518 13.964C14.1218 13.4251 14.2725 12.8999 14.2816 12.8725C14.2725 12.8634 13.2586 12.4752 13.2495 11.306C13.2403 10.3286 14.0487 9.8628 14.0852 9.8354C13.6285 9.15947 12.9161 9.0864 12.6694 9.06813ZM16.3368 7.74368V14.8638H17.442V12.4295H18.972C20.3695 12.4295 21.3515 11.4704 21.3515 10.082C21.3515 8.69363 20.3878 7.74368 19.0085 7.74368H16.3368ZM17.442 8.67536H18.7163C19.6753 8.67536 20.2234 9.18687 20.2234 10.0866C20.2234 10.9863 19.6753 11.5024 18.7117 11.5024H17.442V8.67536ZM23.3701 14.9186C24.0643 14.9186 24.7083 14.5669 25.0006 14.0097H25.0234V14.8638H26.0464V11.3197C26.0464 10.2921 25.2243 9.62988 23.9593 9.62988C22.7855 9.62988 21.9178 10.3012 21.8858 11.2238H22.8814C22.9636 10.7854 23.3701 10.4976 23.9273 10.4976C24.6032 10.4976 24.9823 10.8128 24.9823 11.3928V11.7855L23.603 11.8678C22.3197 11.9454 21.6255 12.4706 21.6255 13.384C21.6255 14.3066 22.3425 14.9186 23.3701 14.9186ZM23.667 14.0736C23.0778 14.0736 22.7033 13.7905 22.7033 13.3566C22.7033 12.909 23.0641 12.6487 23.7537 12.6076L24.9823 12.53V12.9319C24.9823 13.5987 24.416 14.0736 23.667 14.0736ZM27.412 16.8002C28.4898 16.8002 28.9967 16.3892 29.4398 15.1423L31.3808 9.69839H30.2573L28.9556 13.9047H28.9328L27.6312 9.69839H26.4757L28.3482 14.882L28.2477 15.1972C28.0788 15.7315 27.8047 15.937 27.3161 15.937C27.2293 15.937 27.0603 15.9279 26.9918 15.9187V16.7728C27.0557 16.7911 27.3298 16.8002 27.412 16.8002Z" fill="black"/>
</svg>
