<svg width="20" height="20" viewBox="0 0 20 20" fill="none" xmlns="http://www.w3.org/2000/svg">
<g opacity="0.6">
<path d="M9.81884 8.12606C8.17939 8.12606 6.85035 9.45509 6.85035 11.0945C6.85035 12.734 8.17939 14.063 9.81884 14.063C11.4583 14.063 12.7873 12.734 12.7873 11.0945C12.7873 9.45509 11.4583 8.12606 9.81884 8.12606Z" fill="#102339"/>
<path fill-rule="evenodd" clip-rule="evenodd" d="M13.1528 1.26757C11.2515 -0.422524 8.38623 -0.422524 6.48487 1.26757L6.28781 1.44274C5.74694 1.92351 5.04845 2.18908 4.32479 2.18908C1.93628 2.18908 1.20874e-07 4.12536 1.20874e-07 6.51387V11.1359C-7.33764e-06 12.8133 -1.32769e-05 14.1282 0.113011 15.1714C0.228351 16.236 0.467947 17.0986 1.00303 17.8351C1.32697 18.2809 1.71906 18.673 2.16493 18.997C2.90141 19.5321 3.76399 19.7716 4.82856 19.887C5.87175 20 7.18663 20 8.86404 20H10.7736C12.451 20 13.7659 20 14.8091 19.887C15.8737 19.7716 16.7363 19.5321 17.4728 18.997C17.9186 18.673 18.3107 18.2809 18.6347 17.8351C19.1697 17.0986 19.4093 16.236 19.5247 15.1714C19.6377 14.1282 19.6377 12.8134 19.6377 11.136V6.51387C19.6377 4.12536 17.7014 2.18908 15.3129 2.18908C14.5892 2.18908 13.8907 1.92351 13.3499 1.44274L13.1528 1.26757ZM5.48028 11.0945C5.48028 8.69842 7.42272 6.75599 9.81884 6.75599C12.215 6.75599 14.1574 8.69842 14.1574 11.0945C14.1574 13.4907 12.215 15.4331 9.81884 15.4331C7.42272 15.4331 5.48028 13.4907 5.48028 11.0945ZM15.2991 7.44106C14.7947 7.44106 14.3857 7.03213 14.3857 6.52768C14.3857 6.02324 14.7947 5.6143 15.2991 5.6143C15.8036 5.6143 16.2125 6.02324 16.2125 6.52768C16.2125 7.03213 15.8036 7.44106 15.2991 7.44106Z" fill="#102339"/>
</g>
</svg>
