<svg width="16" height="15" viewBox="0 0 16 15" fill="none" xmlns="http://www.w3.org/2000/svg">
<path d="M15.9744 13.7428L15.2449 11.5488C15.2046 11.4224 15.2162 11.2903 15.2794 11.1697C15.8308 10.1014 16.0547 8.84362 15.8192 7.51099C15.4575 5.47209 13.9642 3.7837 12.0286 3.13454C12.5283 4.34065 12.6775 5.67879 12.4306 7.01115C11.9253 9.71054 9.75997 11.8527 7.04894 12.341C6.69856 12.4042 6.34257 12.4329 5.99219 12.4443C6.81342 13.3346 7.91622 13.9663 9.14527 14.1845C10.4662 14.42 11.7182 14.2017 12.7866 13.6618C12.9014 13.6044 13.0393 13.5872 13.1599 13.6331L15.3595 14.3682C15.7331 14.495 16.1007 14.1274 15.9742 13.7426L15.9744 13.7428Z" fill="#02957D"/>
<path d="M4.71214 0.102293C2.42635 0.52727 0.594309 2.38248 0.180786 4.67402C-0.0547189 6.00077 0.169248 7.26431 0.72063 8.33271C0.783834 8.44758 0.795242 8.5854 0.755117 8.71181L0.0256423 10.9058C-0.100764 11.2907 0.261147 11.6583 0.651637 11.5318L2.85128 10.7968C2.97769 10.7565 3.10974 10.768 3.2246 10.8255C4.28713 11.3653 5.54489 11.5893 6.8659 11.3482C9.1517 10.9403 11.0011 9.10823 11.4317 6.82795C12.1785 2.80759 8.72682 -0.644345 4.71197 0.102293H4.71214ZM6.16528 7.49976H3.32231C3.04091 7.49976 2.81696 7.27003 2.81696 6.99441C2.81696 6.71301 3.0467 6.48906 3.32231 6.48906H6.16528C6.44668 6.48906 6.67064 6.71879 6.67064 6.99441C6.6764 7.27004 6.44667 7.49976 6.16528 7.49976ZM8.19841 5.46664H3.32244C3.04105 5.46664 2.81709 5.2369 2.81709 4.96129C2.81709 4.67989 3.04683 4.45594 3.32244 4.45594H8.19841C8.4798 4.45594 8.70376 4.68567 8.70376 4.96129C8.70953 5.24269 8.47979 5.46664 8.19841 5.46664Z" fill="#02957D"/>
</svg>
