<svg width="21" height="20" viewBox="0 0 21 20" fill="none" xmlns="http://www.w3.org/2000/svg">
<path fill-rule="evenodd" clip-rule="evenodd" d="M6.09562 18.8906C10.0054 21.3067 14.8228 19.3427 17.0944 17.0711C20.9997 13.1658 20.9997 6.83418 17.0944 2.92893C13.1892 -0.976311 6.85752 -0.976311 2.95228 2.92893C0.58389 5.29732 -1.29244 10.0269 1.13203 13.9282C1.26629 14.1442 1.33344 14.2523 1.36627 14.3347C1.42886 14.4919 1.44725 14.6126 1.43431 14.7812C1.42752 14.8697 1.40161 14.9697 1.34979 15.1696C1.02378 16.4274 0.860777 17.0563 0.952984 17.5094C1.11302 18.2958 1.72759 18.9103 2.51396 19.0704C2.96704 19.1626 3.59593 18.9996 4.85373 18.6736C5.05359 18.6218 5.15357 18.5958 5.24178 18.589C5.41043 18.576 5.52971 18.594 5.68699 18.6563C5.76925 18.6889 5.87804 18.7561 6.09562 18.8906ZM7.05273 9.85779C7.05273 10.4101 6.60502 10.8578 6.05273 10.8578C5.50045 10.8578 5.05273 10.4101 5.05273 9.85779C5.05273 9.3055 5.50045 8.85779 6.05273 8.85779C6.60502 8.85779 7.05273 9.3055 7.05273 9.85779ZM11.0527 9.85779C11.0527 10.4101 10.605 10.8578 10.0527 10.8578C9.50045 10.8578 9.05273 10.4101 9.05273 9.85779C9.05273 9.3055 9.50045 8.85779 10.0527 8.85779C10.605 8.85779 11.0527 9.3055 11.0527 9.85779ZM14.0527 10.8578C14.605 10.8578 15.0527 10.4101 15.0527 9.85779C15.0527 9.3055 14.605 8.85779 14.0527 8.85779C13.5005 8.85779 13.0527 9.3055 13.0527 9.85779C13.0527 10.4101 13.5005 10.8578 14.0527 10.8578Z" fill="#102339"/>
</svg>
