<svg width="14" height="14" viewBox="0 0 14 14" fill="none" xmlns="http://www.w3.org/2000/svg">
<path fill-rule="evenodd" clip-rule="evenodd" d="M7 14C10.866 14 14 10.866 14 7C14 3.13401 10.866 0 7 0C3.13401 0 0 3.13401 0 7C0 10.866 3.13401 14 7 14ZM10.8911 5.25019C11.0845 5.03417 11.0662 4.70226 10.8502 4.50886C10.6342 4.31545 10.3023 4.33379 10.1089 4.54981L7.75044 7.18404C7.27255 7.71781 6.95072 8.07539 6.67556 8.30666C6.41345 8.52697 6.25949 8.575 6.125 8.575C5.99051 8.575 5.83656 8.52697 5.57444 8.30666C5.29928 8.07539 4.97745 7.71781 4.49956 7.18403L3.89114 6.50446C3.69774 6.28844 3.36583 6.27011 3.14981 6.46351C2.93379 6.65692 2.91545 6.98882 3.10886 7.20484L3.74327 7.91345C4.18837 8.41063 4.55962 8.82533 4.89885 9.11045C5.25769 9.41206 5.64475 9.625 6.125 9.625C6.60525 9.625 6.99231 9.41206 7.35115 9.11045C7.69038 8.82533 8.06163 8.41063 8.50673 7.91345L10.8911 5.25019Z" fill="#E8E9EC"/>
</svg>
