<svg width="20" height="20" viewBox="0 0 20 20" fill="none" xmlns="http://www.w3.org/2000/svg">
<path d="M10.75 1C10.75 0.585786 10.4142 0.25 10 0.25C9.58579 0.25 9.25 0.585786 9.25 1H10.75ZM9.25 2.63636C9.25 3.05058 9.58579 3.38636 10 3.38636C10.4142 3.38636 10.75 3.05058 10.75 2.63636H9.25ZM10.75 17.3636C10.75 16.9494 10.4142 16.6136 10 16.6136C9.58579 16.6136 9.25 16.9494 9.25 17.3636H10.75ZM9.25 19C9.25 19.4142 9.58579 19.75 10 19.75C10.4142 19.75 10.75 19.4142 10.75 19H9.25ZM19 10.75C19.4142 10.75 19.75 10.4142 19.75 10C19.75 9.58579 19.4142 9.25 19 9.25V10.75ZM17.3636 9.25C16.9494 9.25 16.6136 9.58579 16.6136 10C16.6136 10.4142 16.9494 10.75 17.3636 10.75V9.25ZM2.63636 10.75C3.05058 10.75 3.38636 10.4142 3.38636 10C3.38636 9.58579 3.05058 9.25 2.63636 9.25V10.75ZM1 9.25C0.585786 9.25 0.25 9.58579 0.25 10C0.25 10.4142 0.585786 10.75 1 10.75V9.25ZM16.8943 4.16637C17.1872 3.87348 17.1872 3.3986 16.8943 3.10571C16.6014 2.81282 16.1265 2.81282 15.8336 3.10571L16.8943 4.16637ZM14.6765 4.26279C14.3837 4.55569 14.3837 5.03056 14.6765 5.32345C14.9694 5.61635 15.4443 5.61635 15.7372 5.32345L14.6765 4.26279ZM5.32345 15.7372C5.61635 15.4443 5.61635 14.9694 5.32345 14.6765C5.03056 14.3837 4.55569 14.3837 4.26279 14.6765L5.32345 15.7372ZM3.10571 15.8336C2.81282 16.1265 2.81282 16.6014 3.10571 16.8943C3.3986 17.1872 3.87348 17.1872 4.16637 16.8943L3.10571 15.8336ZM15.8336 16.8943C16.1265 17.1872 16.6014 17.1872 16.8943 16.8943C17.1872 16.6014 17.1872 16.1265 16.8943 15.8336L15.8336 16.8943ZM15.7372 14.6765C15.4443 14.3837 14.9694 14.3837 14.6765 14.6765C14.3837 14.9694 14.3837 15.4443 14.6765 15.7372L15.7372 14.6765ZM4.26279 5.32345C4.55569 5.61635 5.03056 5.61635 5.32345 5.32345C5.61635 5.03056 5.61635 4.55569 5.32345 4.26279L4.26279 5.32345ZM4.16637 3.10571C3.87348 2.81282 3.3986 2.81282 3.10571 3.10571C2.81282 3.3986 2.81282 3.87348 3.10571 4.16637L4.16637 3.10571ZM14.1591 10C14.1591 12.297 12.297 14.1591 10 14.1591V15.6591C13.1254 15.6591 15.6591 13.1254 15.6591 10H14.1591ZM10 14.1591C7.703 14.1591 5.84091 12.297 5.84091 10H4.34091C4.34091 13.1254 6.87457 15.6591 10 15.6591V14.1591ZM5.84091 10C5.84091 7.703 7.703 5.84091 10 5.84091V4.34091C6.87457 4.34091 4.34091 6.87457 4.34091 10H5.84091ZM10 5.84091C12.297 5.84091 14.1591 7.703 14.1591 10H15.6591C15.6591 6.87457 13.1254 4.34091 10 4.34091V5.84091ZM9.25 1V2.63636H10.75V1H9.25ZM9.25 17.3636V19H10.75V17.3636H9.25ZM19 9.25H17.3636V10.75H19V9.25ZM2.63636 9.25H1V10.75H2.63636V9.25ZM15.8336 3.10571L14.6765 4.26279L15.7372 5.32345L16.8943 4.16637L15.8336 3.10571ZM4.26279 14.6765L3.10571 15.8336L4.16637 16.8943L5.32345 15.7372L4.26279 14.6765ZM16.8943 15.8336L15.7372 14.6765L14.6765 15.7372L15.8336 16.8943L16.8943 15.8336ZM5.32345 4.26279L4.16637 3.10571L3.10571 4.16637L4.26279 5.32345L5.32345 4.26279Z" fill="#02957D"/>
</svg>
