<svg width="30" height="24" viewBox="0 0 30 24" fill="none" xmlns="http://www.w3.org/2000/svg">
<rect opacity="0.1" width="30" height="24" rx="10" fill="#FF3F50"/>
<path fill-rule="evenodd" clip-rule="evenodd" d="M18.2313 13.4648L18.3577 12.5564C18.3966 12.2769 18.4322 12.0214 18.4638 11.787C18.5287 11.3053 18.5612 11.0644 18.4172 10.8997C18.2732 10.7349 18.0256 10.7349 17.5306 10.7349H12.9032C12.4081 10.7349 12.1606 10.7349 12.0166 10.8997C11.8726 11.0644 11.905 11.3053 11.97 11.787C12.0016 12.0214 12.0371 12.2768 12.0761 12.5564L12.2025 13.4648C12.3399 14.4522 12.4086 14.9458 12.5543 15.3423C12.8267 16.0838 13.2976 16.636 13.8596 16.8732C14.1601 17 14.5124 17 15.2169 17C15.9214 17 16.2736 17 16.5742 16.8732C17.1362 16.636 17.6071 16.0838 17.8795 15.3423C18.0252 14.9458 18.0939 14.4522 18.2313 13.4648ZM14.6145 11.6988C14.6145 11.4992 14.4526 11.3373 14.253 11.3373C14.0534 11.3373 13.8916 11.4992 13.8916 11.6988V15.5542C13.8916 15.7538 14.0534 15.9157 14.253 15.9157C14.4526 15.9157 14.6145 15.7538 14.6145 15.5542V11.6988ZM16.5422 11.6988C16.5422 11.4992 16.3803 11.3373 16.1807 11.3373C15.9811 11.3373 15.8193 11.4992 15.8193 11.6988V15.5542C15.8193 15.7538 15.9811 15.9157 16.1807 15.9157C16.3803 15.9157 16.5422 15.7538 16.5422 15.5542V11.6988Z" fill="#FF3F50"/>
<path d="M15.2169 7C13.9526 7 12.9277 8.02489 12.9277 9.28916V9.40964H11.3614C11.1618 9.40964 11 9.57146 11 9.77108C11 9.97071 11.1618 10.1325 11.3614 10.1325H19.0723C19.2719 10.1325 19.4337 9.97071 19.4337 9.77108C19.4337 9.57146 19.2719 9.40964 19.0723 9.40964H17.506V9.28916C17.506 8.02489 16.4811 7 15.2169 7Z" fill="#FF3F50"/>
</svg>
