<svg width="14" height="12" viewBox="0 0 14 12" fill="none" xmlns="http://www.w3.org/2000/svg">
<path d="M4.87097 1C4.18996 1 3.50896 1.21505 2.93548 1.64516L1.51613 2.70968C1.19122 2.95336 1 3.3358 1 3.74194V9.30905C1 10.338 2.17473 10.9254 2.99792 10.308C3.5529 9.89178 4.21193 9.68366 4.87097 9.68366M4.87097 1C5.55197 1 6.23297 1.21505 6.80645 1.64516L6.86889 1.69199C7.42386 2.10822 8.0829 2.31634 8.74194 2.31634M4.87097 1V1.48387V9.22581V9.68366M8.74194 2.31634C9.40097 2.31634 10.06 2.10822 10.615 1.69199C11.4382 1.0746 12.6129 1.66196 12.6129 2.69095V8.25806C12.6129 8.6642 12.4217 9.04664 12.0968 9.29032L10.6774 10.3548C10.1039 10.7849 9.42294 11 8.74194 11M8.74194 2.31634V2.77419V10.5161V11M8.74194 11C8.06093 11 7.37993 10.7849 6.80645 10.3548L6.74402 10.308C6.18904 9.89178 5.53 9.68366 4.87097 9.68366" stroke="#02957D" stroke-linecap="round"/>
</svg>
