<svg width="162" height="102" viewBox="0 0 162 102" fill="none" xmlns="http://www.w3.org/2000/svg">
<rect opacity="0.3" x="0.5" y="0.5" width="161" height="101" rx="10.5" fill="white" stroke="#111827" stroke-dasharray="10 10"/>
<path d="M60.2213 73H61.6013L58.7313 66.13H57.3413L54.4713 73H55.8613L56.3813 71.76H59.7013L60.2213 73ZM56.8313 70.68L58.0413 67.79L59.2513 70.68H56.8313ZM66.4008 66.01V68.63C65.9908 68.05 65.3708 67.71 64.6108 67.71C63.2408 67.71 62.2408 68.83 62.2408 70.41C62.2408 72 63.2408 73.12 64.6108 73.12C65.3708 73.12 65.9908 72.78 66.4008 72.2V73H67.6208V66.01H66.4008ZM64.9408 72.08C64.0708 72.08 63.4508 71.38 63.4508 70.41C63.4508 69.44 64.0708 68.75 64.9408 68.75C65.8008 68.75 66.4008 69.44 66.4008 70.41C66.4008 71.38 65.8008 72.08 64.9408 72.08ZM72.9242 66.01V68.63C72.5142 68.05 71.8942 67.71 71.1342 67.71C69.7642 67.71 68.7642 68.83 68.7642 70.41C68.7642 72 69.7642 73.12 71.1342 73.12C71.8942 73.12 72.5142 72.78 72.9242 72.2V73H74.1442V66.01H72.9242ZM71.4642 72.08C70.5942 72.08 69.9742 71.38 69.9742 70.41C69.9742 69.44 70.5942 68.75 71.4642 68.75C72.3242 68.75 72.9242 69.44 72.9242 70.41C72.9242 71.38 72.3242 72.08 71.4642 72.08ZM78.4097 73H79.6497V66.13H78.4097V73ZM87.015 67.71C86.245 67.71 85.595 68.09 85.345 68.69C85.025 68.08 84.425 67.71 83.695 67.71C83.045 67.71 82.515 68.03 82.255 68.53V67.83H81.035V73H82.255V69.83C82.255 69.2 82.725 68.75 83.385 68.75C83.985 68.75 84.395 69.23 84.395 69.91V73H85.585V69.83C85.585 69.2 86.045 68.75 86.715 68.75C87.305 68.75 87.715 69.23 87.715 69.91V73H88.905V69.71C88.905 68.54 88.095 67.71 87.015 67.71ZM92.4747 67.71C91.8247 67.71 91.1447 67.89 90.4147 68.25L90.8347 69.1C91.2747 68.88 91.7447 68.71 92.2347 68.71C93.1747 68.71 93.5047 69.29 93.5047 69.89V70.03C93.0347 69.85 92.5247 69.75 92.0547 69.75C90.8947 69.75 89.9447 70.45 89.9447 71.47C89.9447 72.47 90.7747 73.12 91.8747 73.12C92.4747 73.12 93.1247 72.86 93.5047 72.38V73H94.6947V69.89C94.6947 68.58 93.8447 67.71 92.4747 67.71ZM92.1447 72.23C91.5647 72.23 91.1347 71.92 91.1347 71.43C91.1347 70.94 91.6247 70.6 92.2347 70.6C92.6947 70.6 93.1247 70.67 93.5047 70.8V71.38C93.3647 71.93 92.7347 72.23 92.1447 72.23ZM99.8657 67.83V68.6C99.4957 68.05 98.8257 67.71 98.0957 67.71C96.7557 67.71 95.7657 68.72 95.7657 70.16C95.7657 71.6 96.7557 72.62 98.0957 72.62C98.8357 72.62 99.4557 72.29 99.8657 71.74V72.41C99.8657 73.19 99.2257 73.68 98.2057 73.68C97.5957 73.68 96.9757 73.47 96.6157 73.14L96.1657 74.03C96.6757 74.43 97.4957 74.72 98.3857 74.72C99.9657 74.72 101.086 73.78 101.086 72.45V67.83H99.8657ZM98.4457 71.58C97.6257 71.58 97.0357 70.99 97.0357 70.16C97.0357 69.34 97.6257 68.75 98.4457 68.75C99.2757 68.75 99.8657 69.34 99.8657 70.16C99.8657 70.99 99.2757 71.58 98.4457 71.58ZM104.861 72.04C104.121 72.04 103.581 71.54 103.431 70.83H107.331C107.331 68.92 106.401 67.71 104.801 67.71C103.331 67.71 102.171 68.85 102.171 70.4C102.171 71.99 103.391 73.12 104.871 73.12C105.621 73.12 106.521 72.8 106.971 72.32L106.201 71.52C105.911 71.82 105.341 72.04 104.861 72.04ZM104.851 68.79C105.581 68.79 106.021 69.25 106.161 69.9H103.441C103.621 69.22 104.171 68.79 104.851 68.79Z" fill="#87919C"/>
<path fill-rule="evenodd" clip-rule="evenodd" d="M91.6963 25C92.4353 25.0005 93.1575 25.2202 93.7717 25.6312C94.3858 26.0421 94.8643 26.626 95.1466 27.3089C95.429 27.9919 95.5024 28.7432 95.3577 29.4679C95.2131 30.1925 94.8567 30.858 94.3338 31.3802C93.8109 31.9024 93.1449 32.2578 92.4201 32.4014C91.6952 32.5451 90.944 32.4705 90.2614 32.1873C89.5789 31.904 88.9957 31.4247 88.5856 30.81C88.1755 30.1952 87.9568 29.4727 87.9574 28.7337C87.957 28.2429 88.0535 27.7568 88.2414 27.3033C88.4292 26.8498 88.7047 26.4378 89.052 26.0909C89.3994 25.7441 89.8117 25.4692 90.2655 25.282C90.7192 25.0948 91.2055 24.999 91.6963 25ZM67.6334 45.4275L76.2053 31.5094C76.9229 30.6839 78.5494 30.6839 79.2661 31.5094L84.8325 40.5393L87.0389 36.9582C87.5494 36.3687 88.7057 36.3687 89.2145 36.9582L95.302 46.8443C96.4512 48.7112 95.2379 51 93.2044 51H70.5811C67.686 51 66.0122 48.0576 67.6334 45.4293V45.4275Z" fill="#02957D"/>
</svg>
