<svg width="10" height="10" viewBox="0 0 10 10" fill="none" xmlns="http://www.w3.org/2000/svg">
<path d="M5.7232 9.15498C5.48986 9.15498 5.30069 9.34414 5.30069 9.57749C5.30069 9.81083 5.48986 10 5.7232 10H9.10329C9.33664 10 9.5258 9.81083 9.5258 9.57749C9.5258 9.34414 9.33664 9.15498 9.10329 9.15498H5.7232Z" fill="#02957D"/>
<path d="M6.17054 0.746718L6.22128 0.776011C6.65963 1.02908 7.02516 1.2401 7.29282 1.44665C7.57533 1.66466 7.79956 1.9149 7.89347 2.2654C7.98739 2.61591 7.91832 2.94473 7.78267 3.27479C7.68851 3.50389 7.55006 3.76133 7.38323 4.05498L7.02533 3.84226L7.02071 3.83955L3.11936 1.58711L2.75451 1.37207C2.92356 1.08415 3.07588 0.838232 3.22584 0.643908C3.44385 0.361398 3.69409 0.13717 4.0446 0.0432519C4.3951 -0.0506658 4.72393 0.0184033 5.05399 0.154058C5.36668 0.282577 5.73221 0.493629 6.17054 0.746718Z" fill="#02957D"/>
<path d="M2.33119 2.10345L0.371886 5.49701C0.204128 5.78702 0.0714821 6.01633 0.0223382 6.27717C-0.0268058 6.538 0.0132973 6.79986 0.0640158 7.13104L0.0776804 7.22055C0.171301 7.83537 0.248469 8.34213 0.364856 8.72643C0.48658 9.12834 0.673699 9.47622 1.04172 9.68869C1.40974 9.90117 1.80457 9.88928 2.21349 9.79374C2.60449 9.70239 3.08195 9.51583 3.6612 9.2895L3.74556 9.25658C4.05773 9.13491 4.30456 9.03871 4.50588 8.86574C4.70719 8.69276 4.83946 8.46323 5.00674 8.17294L6.96141 4.78729L6.59588 4.57003L2.69193 2.31608L2.33119 2.10345Z" fill="#02957D"/>
</svg>
