<svg width="30" height="24" viewBox="0 0 30 24" fill="none" xmlns="http://www.w3.org/2000/svg">
<rect opacity="0.1" width="30" height="24" rx="10" fill="#02957D"/>
<path d="M17.2197 7.75737L17.2709 7.78708C17.7127 8.04375 18.0812 8.25778 18.351 8.46727C18.6357 8.68839 18.8617 8.9422 18.9564 9.2977C19.0511 9.65321 18.9815 9.98672 18.8447 10.3215C18.7498 10.5538 18.6102 10.815 18.4421 11.1128L18.0813 10.897L18.0767 10.8943L14.1442 8.60974L13.7765 8.39164C13.9469 8.09961 14.1004 7.85018 14.2516 7.65309C14.4713 7.36655 14.7235 7.13913 15.0768 7.04387C15.4301 6.94861 15.7616 7.01867 16.0943 7.15625C16.4095 7.28661 16.7779 7.50067 17.2197 7.75737Z" fill="#02957D"/>
<path d="M13.3498 9.13344L11.3749 12.5754C11.2058 12.8695 11.0721 13.1021 11.0225 13.3667C10.973 13.6312 11.0134 13.8968 11.0645 14.2327L11.0783 14.3235C11.1727 14.9471 11.2504 15.4611 11.3678 15.8508C11.4905 16.2585 11.6791 16.6113 12.05 16.8268C12.421 17.0423 12.819 17.0303 13.2311 16.9334C13.6253 16.8407 14.1065 16.6515 14.6904 16.422L14.7754 16.3886C15.0901 16.2652 15.3389 16.1676 15.5418 15.9921C15.7447 15.8167 15.878 15.5839 16.0467 15.2895L18.0169 11.8555L17.6485 11.6352L13.7134 9.3491L13.3498 9.13344Z" fill="#02957D"/>
</svg>
