<svg width="19" height="17" viewBox="0 0 19 17" fill="none" xmlns="http://www.w3.org/2000/svg">
<path d="M17.011 3.61576C17.3768 4.43429 17.5318 5.55006 17.7982 7.46824C18.2071 10.4124 18.4116 11.8845 17.962 13.0278C17.5673 14.0315 16.8386 14.8684 15.8988 15.3974C14.8282 16 13.3419 16 10.3695 16H8.84682C5.87439 16 4.38817 16 3.31757 15.3974C2.3777 14.8684 1.64898 14.0315 1.25432 13.0278C0.804761 11.8845 1.00922 10.4124 1.41813 7.46824C1.66758 5.67221 1.81932 4.57965 2.1379 3.77587M17.011 3.61576C16.9396 3.45592 16.8601 3.30742 16.7702 3.16649C16.2853 2.40633 15.5914 1.80215 14.7718 1.42641C13.8416 1 12.6842 1 10.3695 1H8.84682C6.53208 1 5.37472 1 4.44456 1.42641C3.62491 1.80215 2.93103 2.40633 2.44609 3.16649C2.32687 3.35338 2.22601 3.55358 2.1379 3.77587M17.011 3.61576L16.928 3.69876L16.1235 4.50325C12.9985 7.62825 11.436 9.19075 9.49441 9.19075C7.55278 9.19075 5.99028 7.62825 2.86528 4.50325L2.1379 3.77587" stroke="#02957D" stroke-width="1.5"/>
</svg>
