<svg width="226" height="150" viewBox="0 0 226 150" fill="none" xmlns="http://www.w3.org/2000/svg">
<g clip-path="url(#clip0_830_5525)">
<path d="M80.962 86.3263C88.6971 72.7194 103.452 62.2715 119.071 63.278C107.55 75.8068 100.832 92.0071 100.105 109.012C99.8487 115.572 100.246 122.894 95.8912 127.806C93.1814 130.862 89.0393 132.342 84.9668 132.652C80.8941 132.963 76.8223 132.227 72.804 131.494L71.8292 131.793C71.4581 116.146 73.2269 99.9332 80.962 86.3263Z" fill="#F0F0F0"/>
<path d="M119.095 63.6057C107.545 69.166 97.6961 78.4523 91.6502 89.7777C90.3431 92.2262 89.2303 94.8238 88.7448 97.5703C88.2592 100.318 88.5984 102.934 89.5369 105.543C90.3949 107.929 91.5488 110.27 91.8119 112.823C92.0892 115.514 91.0991 118.03 89.3169 120.027C87.1364 122.47 84.208 123.984 81.2929 125.365C78.0562 126.898 74.6699 128.439 72.3774 131.301C72.0997 131.648 71.5779 131.197 71.8552 130.85C75.8438 125.871 82.6712 124.936 87.4057 120.925C89.6149 119.053 91.2735 116.505 91.1688 113.518C91.0773 110.907 89.8894 108.492 88.9998 106.084C88.0657 103.555 87.5999 101.013 87.9349 98.3166C88.2775 95.5588 89.2912 92.9123 90.5299 90.4411C93.3236 84.8679 97.1469 79.7513 101.527 75.3284C106.56 70.2443 112.427 66.0588 118.872 62.9529C119.271 62.7608 119.491 63.4148 119.095 63.6057Z" fill="white"/>
<path d="M93.4211 85.9926C91.6505 84.6979 90.3977 82.8159 89.8865 80.6828C89.3753 78.5496 89.639 76.3042 90.6305 74.3475C90.8325 73.9523 91.4561 74.2476 91.2539 74.6434C90.3272 76.4637 90.0818 78.5553 90.5619 80.5408C91.0419 82.5262 92.2159 84.2746 93.8719 85.4704C94.2315 85.7307 93.7786 86.2514 93.4211 85.9926Z" fill="white"/>
<path d="M88.9423 104.391C93.3792 103.743 97.4088 101.446 100.228 97.9584C100.507 97.6126 101.028 98.0638 100.75 98.4091C97.8097 102.033 93.6115 104.414 88.9928 105.079C88.5525 105.142 88.5044 104.454 88.9423 104.391V104.391Z" fill="white"/>
<path d="M106.901 71.0931C107.481 71.7368 108.213 72.2262 109.03 72.5174C109.846 72.8085 110.722 72.8923 111.579 72.7611C112.019 72.6925 112.066 73.381 111.63 73.4491C110.682 73.5896 109.715 73.4959 108.812 73.1763C107.909 72.8566 107.098 72.3207 106.45 71.6153C106.383 71.5539 106.343 71.4695 106.336 71.3791C106.329 71.2888 106.357 71.1993 106.414 71.1288C106.474 71.06 106.559 71.0176 106.65 71.0109C106.741 71.0043 106.831 71.0338 106.901 71.0931Z" fill="white"/>
<path d="M150.149 106.203C149.876 106.254 149.603 106.304 149.328 106.36C145.66 107.06 142.055 108.056 138.549 109.34C138.276 109.434 138.002 109.535 137.732 109.637C129.318 112.819 121.568 117.536 114.875 123.547C112.214 125.942 109.739 128.535 107.472 131.305C104.341 135.131 101.25 139.528 97.1585 142.022C96.7345 142.287 96.2945 142.526 95.8411 142.736L72.2701 132.959C72.2277 132.91 72.1828 132.866 72.1401 132.817L71.1812 132.47C71.2881 132.319 71.4023 132.164 71.5093 132.013C71.571 131.926 71.6379 131.84 71.6996 131.752C71.7423 131.694 71.7854 131.636 71.8207 131.582C71.8349 131.562 71.8493 131.543 71.8613 131.529C71.8966 131.474 71.9352 131.427 71.9682 131.378C72.6041 130.514 73.2471 129.652 73.8974 128.794C73.8996 128.788 73.8996 128.788 73.9071 128.785C78.8783 122.256 84.4382 116.084 90.7581 110.953C90.9483 110.799 91.1404 110.639 91.3414 110.489C94.2029 108.192 97.2475 106.133 100.445 104.331C102.198 103.351 104.001 102.46 105.844 101.661C110.613 99.6074 115.675 98.3165 120.844 97.8357C131.149 96.8787 141.646 99.2283 149.55 105.702C149.752 105.868 149.949 106.032 150.149 106.203Z" fill="#F0F0F0"/>
<path d="M149.972 106.48C137.402 103.966 123.947 105.451 112.301 110.853C109.784 112.021 107.331 113.425 105.29 115.326C103.248 117.228 101.944 119.52 101.122 122.169C100.371 124.59 99.8826 127.154 98.5557 129.351C97.157 131.666 94.8517 133.079 92.2265 133.601C89.0146 134.238 85.7649 133.684 82.6059 133.032C79.0984 132.307 75.4667 131.499 71.9133 132.404C71.4827 132.514 71.3378 131.839 71.7677 131.73C77.95 130.156 83.9648 133.519 90.1598 133.167C93.0505 133.003 95.9092 131.966 97.6236 129.519C99.1227 127.379 99.6284 124.735 100.368 122.277C101.145 119.696 102.303 117.385 104.194 115.434C106.128 113.439 108.531 111.936 111.008 110.709C116.594 107.941 122.727 106.157 128.887 105.263C135.967 104.234 143.171 104.424 150.187 105.824C150.621 105.911 150.403 106.566 149.972 106.48V106.48Z" fill="white"/>
<path d="M115.995 108.897C115.36 106.798 115.493 104.541 116.369 102.53C117.245 100.519 118.808 98.8847 120.778 97.9194C121.177 97.7254 121.497 98.3367 121.097 98.5309C119.261 99.4264 117.806 100.949 116.994 102.823C116.182 104.697 116.067 106.8 116.669 108.752C116.799 109.176 116.124 109.319 115.995 108.897Z" fill="white"/>
<path d="M101.341 120.891C105.274 123.045 109.875 123.637 114.225 122.549C114.656 122.441 114.801 123.116 114.37 123.224C109.841 124.347 105.055 123.721 100.967 121.471C100.578 121.256 100.954 120.677 101.341 120.891Z" fill="white"/>
<path d="M135.728 105.117C135.804 105.981 136.093 106.812 136.57 107.536C137.047 108.26 137.696 108.854 138.459 109.266C138.851 109.475 138.475 110.054 138.085 109.845C137.244 109.387 136.528 108.73 136 107.931C135.471 107.132 135.146 106.216 135.054 105.262C135.037 105.173 135.056 105.081 135.105 105.005C135.154 104.929 135.23 104.874 135.318 104.853C135.407 104.834 135.501 104.851 135.577 104.9C135.654 104.95 135.708 105.028 135.728 105.117Z" fill="white"/>
<path d="M105.248 122.333C101.947 106.372 97.8207 101.05 97.8207 101.05L96.2444 99.8278L94.3487 98.3553L94.3578 98.166L93.9082 98.0132L93.8026 97.9311L93.6295 97.7982L93.6017 97.8281L93.5429 97.889L84.9646 94.9731L74.0816 91.2764L69.0421 84.7261C68.2214 83.6593 67.1647 82.797 65.955 82.207C64.7452 81.6169 63.4152 81.315 62.0692 81.3249L45.9747 81.444C43.7985 81.4601 41.7071 82.2897 40.1115 83.7697L29.5328 93.5822L13.0492 101.455L13.0213 101.427L12.8482 101.551L10.3014 102.768L10.4065 103.315L8.83011 104.453C8.83011 104.453 4.7038 109.404 1.40273 124.256C0.562977 128.035 0.149619 136.141 0.000419283 146.131C-0.00707501 146.636 0.0859632 147.138 0.274122 147.607C0.46228 148.076 0.741807 148.503 1.09645 148.863C1.45109 149.223 1.87377 149.509 2.33991 149.704C2.80605 149.899 3.30635 150 3.81173 150H91.8542V150H102.843C103.348 150 103.848 149.899 104.314 149.704C104.78 149.509 105.202 149.224 105.557 148.864C105.911 148.504 106.191 148.078 106.379 147.609C106.568 147.141 106.661 146.639 106.654 146.135C106.509 135.265 106.095 126.431 105.248 122.333Z" fill="#102339"/>
<path d="M116.544 13.9194C113.119 13.9194 109.834 15.2802 107.412 17.7023C104.99 20.1244 103.629 23.4094 103.629 26.8348C103.629 30.2602 104.99 33.5452 107.412 35.9674C109.834 38.3895 113.119 39.7502 116.544 39.7502H212.795C216.22 39.7502 219.505 38.3895 221.927 35.9674C224.349 33.5452 225.71 30.2602 225.71 26.8348C225.71 23.4094 224.349 20.1244 221.927 17.7023C219.505 15.2802 216.22 13.9194 212.795 13.9194H116.544Z" fill="#E5E5E5"/>
<path d="M116.544 16.5332C113.812 16.5332 111.192 17.6185 109.26 19.5505C107.328 21.4824 106.243 24.1026 106.243 26.8348C106.243 29.5669 107.328 32.1871 109.26 34.119C111.192 36.051 113.812 37.1363 116.544 37.1363H212.794C215.527 37.1363 218.147 36.051 220.079 34.119C222.011 32.1871 223.096 29.5669 223.096 26.8348C223.096 24.1026 222.011 21.4824 220.079 19.5505C218.147 17.6185 215.527 16.5332 212.794 16.5332H116.544Z" fill="white"/>
<path d="M56.5493 75.2786C68.1945 75.2786 77.6348 65.8383 77.6348 54.1931C77.6348 42.5479 68.1945 33.1077 56.5493 33.1077C44.9041 33.1077 35.4639 42.5479 35.4639 54.1931C35.4639 65.8383 44.9041 75.2786 56.5493 75.2786Z" fill="#FFB7B7"/>
<path d="M51.1552 74.2461C51.0652 74.0478 50.9753 73.8487 50.8857 73.649C50.9203 73.6502 50.9544 73.6551 50.989 73.656L51.1552 74.2461Z" fill="#102339"/>
<path d="M34.8775 34.0664C35.9439 33.2157 37.1903 32.433 38.5538 32.477C39.9173 32.5209 41.2999 33.7524 41.0175 35.087C43.5219 30.6527 47.5082 27.2422 52.2766 25.4541C57.0451 23.6661 62.291 23.6148 67.0935 25.3092C70.4823 26.5048 73.8055 28.8967 74.584 32.4048C74.7838 33.3054 74.8267 34.2929 75.389 35.0242C76.098 35.9462 77.4545 36.1547 78.5714 35.8304C78.5826 35.8271 78.5937 35.8239 78.6049 35.8205C78.7935 35.7561 78.9972 35.7498 79.1895 35.8024C79.3819 35.8549 79.554 35.964 79.6837 36.1155C79.8133 36.267 79.8945 36.4539 79.9168 36.652C79.9391 36.8501 79.9014 37.0504 79.8086 37.2269L78.8498 39.0152C80.0585 39.2846 81.3144 39.2579 82.5105 38.9373C82.7093 38.8852 82.9192 38.8958 83.1116 38.9678C83.304 39.0397 83.4695 39.1694 83.5853 39.3391C83.7011 39.5088 83.7615 39.7101 83.7584 39.9155C83.7552 40.1209 83.6885 40.3203 83.5676 40.4863C80.4059 44.8272 75.1237 47.6303 69.7333 47.5973C65.9022 47.574 62.0316 46.2536 58.3031 47.1346C56.8606 47.4754 55.5128 48.1349 54.3585 49.0645C53.2042 49.9942 52.2726 51.1705 51.6322 52.5072C50.9918 53.8438 50.6587 55.3069 50.6575 56.789C50.6563 58.2712 50.9869 59.7348 51.6251 61.0725C50.4797 59.8197 48.2654 60.1163 47.0937 61.3447C45.9221 62.5731 45.6188 64.4065 45.7368 66.1C45.9174 68.6901 46.9322 71.1307 48.002 73.5061C39.0325 73.2237 30.5488 66.9317 27.6932 58.4217C24.8256 49.876 27.8309 39.6877 34.8775 34.0664Z" fill="#102339"/>
<path opacity="0.2" d="M20.7534 117.514L26.6674 149.691L30.2159 150L20.7534 117.514Z" fill="#102339"/>
<path opacity="0.2" d="M85.8971 115.087L79.9831 149.668L76.4346 150L85.8971 115.087Z" fill="#102339"/>
<path d="M39.9218 23.2374C38.7879 23.7109 37.6047 23.192 37.1085 22.0036C36.6047 20.7971 37.0752 19.5724 38.2273 19.0913C39.3795 18.6102 40.5417 19.1303 41.0536 20.3563C41.5578 21.5639 41.0924 22.7486 39.9218 23.2374ZM37.7497 16.7165L36.8481 17.0929C36.6229 17.1859 36.3709 17.1909 36.1422 17.107C35.9134 17.0231 35.7245 16.8564 35.6128 16.6399L35.5682 16.5526C34.5981 14.8031 34.487 12.6767 35.2398 10.236C35.9372 8.04653 36.2268 6.50669 35.6443 5.11167C34.9708 3.49878 33.5327 2.99354 31.6987 3.72544C30.9874 4.02245 30.7611 4.01772 30.2013 4.573C30.0796 4.69526 29.9344 4.79175 29.7746 4.8567C29.6147 4.92166 29.4434 4.95376 29.2709 4.9511C29.1041 4.94913 28.9394 4.9136 28.7867 4.84662C28.6339 4.77964 28.4962 4.68259 28.3818 4.56124C28.1613 4.3274 28.0378 4.0186 28.0361 3.69721C28.0345 3.37582 28.1549 3.06579 28.373 2.82973C29.3139 1.84483 30.4487 1.06565 31.7058 0.541361C35.6462 -1.10401 37.6298 1.32515 38.5376 3.49902C39.4254 5.62531 38.926 7.59815 38.1235 10.1532C37.451 12.2763 37.4902 13.8494 38.2541 15.4136C38.3092 15.5319 38.3399 15.6601 38.3443 15.7905C38.3487 15.9209 38.3266 16.0508 38.2795 16.1725C38.2324 16.2942 38.1612 16.4051 38.0702 16.4986C37.9791 16.5921 37.8701 16.6662 37.7497 16.7165L37.7497 16.7165Z" fill="#02957D"/>
<path d="M137.805 32.9946H118.654C118.594 32.995 118.533 32.9833 118.477 32.9603C118.421 32.9374 118.369 32.9034 118.326 32.8606C118.283 32.8177 118.249 32.7667 118.225 32.7105C118.202 32.6544 118.19 32.5941 118.19 32.5333C118.19 32.4725 118.202 32.4122 118.225 32.356C118.249 32.2999 118.283 32.2489 118.326 32.206C118.369 32.1631 118.421 32.1292 118.477 32.1062C118.533 32.0832 118.594 32.0716 118.654 32.072H137.805C137.926 32.0729 138.043 32.1218 138.129 32.2082C138.215 32.2946 138.263 32.4115 138.263 32.5333C138.263 32.6551 138.215 32.7719 138.129 32.8583C138.043 32.9448 137.926 32.9937 137.805 32.9946Z" fill="#02957D"/>
<path d="M162.098 33.1482H142.948C142.887 33.1487 142.827 33.137 142.77 33.114C142.714 33.0911 142.663 33.0571 142.62 33.0143C142.576 32.9714 142.542 32.9204 142.519 32.8642C142.495 32.8081 142.483 32.7478 142.483 32.687C142.483 32.6261 142.495 32.5659 142.519 32.5097C142.542 32.4536 142.576 32.4026 142.62 32.3597C142.663 32.3168 142.714 32.2829 142.77 32.2599C142.827 32.2369 142.887 32.2253 142.948 32.2257H162.098C162.159 32.2253 162.219 32.2369 162.276 32.2599C162.332 32.2829 162.383 32.3168 162.426 32.3597C162.469 32.4026 162.504 32.4536 162.527 32.5097C162.55 32.5659 162.562 32.6261 162.562 32.687C162.562 32.7478 162.55 32.8081 162.527 32.8642C162.504 32.9204 162.469 32.9714 162.426 33.0143C162.383 33.0571 162.332 33.0911 162.276 33.114C162.219 33.137 162.159 33.1487 162.098 33.1482Z" fill="#02957D"/>
<path d="M186.391 33.3021H167.241C167.119 33.3012 167.003 33.2523 166.917 33.1658C166.831 33.0794 166.783 32.9626 166.783 32.8408C166.783 32.719 166.831 32.6021 166.917 32.5157C167.003 32.4293 167.119 32.3804 167.241 32.3795H186.391C186.452 32.3791 186.512 32.3907 186.569 32.4137C186.625 32.4367 186.676 32.4706 186.719 32.5135C186.762 32.5564 186.797 32.6074 186.82 32.6635C186.843 32.7197 186.855 32.7799 186.855 32.8408C186.855 32.9016 186.843 32.9619 186.82 33.018C186.797 33.0742 186.762 33.1252 186.719 33.1681C186.676 33.2109 186.625 33.2449 186.569 33.2678C186.512 33.2908 186.452 33.3025 186.391 33.3021H186.391Z" fill="#02957D"/>
<path d="M210.685 33.4559H191.534C191.413 33.455 191.296 33.4061 191.21 33.3196C191.124 33.2332 191.076 33.1164 191.076 32.9946C191.076 32.8728 191.124 32.7559 191.21 32.6695C191.296 32.5831 191.413 32.5342 191.534 32.5333H210.685C210.806 32.5342 210.923 32.5831 211.009 32.6695C211.095 32.7559 211.143 32.8728 211.143 32.9946C211.143 33.1164 211.095 33.2332 211.009 33.3196C210.923 33.4061 210.806 33.455 210.685 33.4559Z" fill="#02957D"/>
<path d="M128.188 28.7495C130.153 28.7495 131.747 27.156 131.747 25.1903C131.747 23.2246 130.153 21.6311 128.188 21.6311C126.222 21.6311 124.628 23.2246 124.628 25.1903C124.628 27.156 126.222 28.7495 128.188 28.7495Z" fill="#02957D"/>
<path d="M152.628 28.7495C154.593 28.7495 156.187 27.156 156.187 25.1903C156.187 23.2246 154.593 21.6311 152.628 21.6311C150.662 21.6311 149.068 23.2246 149.068 25.1903C149.068 27.156 150.662 28.7495 152.628 28.7495Z" fill="#02957D"/>
<path d="M177.068 28.7495C179.033 28.7495 180.627 27.156 180.627 25.1903C180.627 23.2246 179.033 21.6311 177.068 21.6311C175.102 21.6311 173.508 23.2246 173.508 25.1903C173.508 27.156 175.102 28.7495 177.068 28.7495Z" fill="#02957D"/>
<path d="M201.507 28.7495C203.473 28.7495 205.067 27.156 205.067 25.1903C205.067 23.2246 203.473 21.6311 201.507 21.6311C199.542 21.6311 197.948 23.2246 197.948 25.1903C197.948 27.156 199.542 28.7495 201.507 28.7495Z" fill="#02957D"/>
</g>
<defs>
<clipPath id="clip0_830_5525">
<rect width="225.71" height="150" fill="white"/>
</clipPath>
</defs>
</svg>
