<svg width="40" height="24" viewBox="0 0 40 24" fill="none" xmlns="http://www.w3.org/2000/svg">
<rect opacity="0.06" width="40" height="24" rx="4" fill="#297AEC"/>
<path d="M25.3848 8.47932C24.4254 8.28519 22.8785 8.02265 22.4463 8.92577C21.1255 11.2135 20.3672 13.6079 19.7964 14.6352C19.8563 14.6699 22.4872 16.1962 22.6732 16.2865C23.2647 16.5736 24.2521 16.4444 24.6728 15.6857C25.8397 13.5811 25.5431 14.129 26.783 11.9815C27.5842 10.5937 26.5824 8.72161 25.3848 8.47932Z" fill="#EA4335"/>
<path d="M17.0843 17.767C16.4401 17.03 15.9676 15.5555 16.5336 14.7298C18.1873 11.8655 19.511 10.1316 20.5522 8.39355C21.1042 8.71231 23.3162 9.967 23.4635 10.0963C23.9577 10.5298 24.3671 11.3582 23.9204 12.1018C22.6811 14.1647 22.1727 15.0983 20.9131 17.28C20.1117 18.6681 17.8891 18.6877 17.0843 17.767Z" fill="#FDBD00"/>
<path d="M23.0156 7.01926C21.7269 6.2662 21.0645 6.3649 20.3714 6.47605C19.7414 6.63355 18.8894 7.09143 18.5303 7.67967C17.6243 9.16355 16.7662 10.6319 15.6546 12.6217C15.3122 13.2345 15.5663 13.9875 15.8823 14.2863C16.0964 14.4889 17.672 15.3582 17.9627 15.4831C18.3739 15.6599 18.9899 15.5369 19.3615 15.1545C19.4641 15.0488 21.8146 11.0116 22.4765 9.82087C22.7559 9.31839 23.0075 9.04031 23.4254 8.77227C24.2325 8.34872 24.8627 8.29408 25.828 8.64704C25.828 8.64704 23.7271 7.42934 23.0156 7.01926Z" fill="#2DA94F"/>
<path d="M14.7237 16.4939C13.4272 15.7544 13.1814 15.1314 12.9312 14.4756C12.7526 13.8513 12.7231 12.8845 13.053 12.2793C13.8852 10.7529 13.8792 10.7451 15.0466 8.78747C15.4062 8.18454 16.1853 8.02819 16.6021 8.15239C16.8846 8.23652 18.4252 9.16636 18.6788 9.35565C19.0375 9.62339 19.239 10.2183 19.0935 10.7314C19.0534 10.8731 17.5807 13.4576 16.8805 14.6263C16.5849 15.1195 16.47 15.4765 16.4468 15.9723C16.4835 16.8831 16.7513 17.4562 17.5396 18.1157C17.5396 18.1157 15.4346 16.9051 14.7237 16.4939Z" fill="#297AEC"/>
</svg>
