<svg width="29" height="26" viewBox="0 0 29 26" fill="none" xmlns="http://www.w3.org/2000/svg">
<path fill-rule="evenodd" clip-rule="evenodd" d="M24.6963 8.35682e-06C25.4353 0.00052907 26.1575 0.220171 26.7717 0.631158C27.3858 1.04215 27.8643 1.62602 28.1466 2.30895C28.429 2.99187 28.5024 3.74318 28.3577 4.46785C28.2131 5.19253 27.8567 5.85803 27.3338 6.3802C26.8109 6.90237 26.1449 7.25775 25.4201 7.40141C24.6952 7.54507 23.944 7.47055 23.2614 7.18727C22.5789 6.904 21.9957 6.42469 21.5856 5.80996C21.1755 5.19523 20.9568 4.4727 20.9574 3.73372C20.957 3.24286 21.0535 2.75676 21.2414 2.30326C21.4292 1.84977 21.7047 1.43779 22.052 1.09095C22.3994 0.744105 22.8117 0.469205 23.2655 0.282001C23.7192 0.0947973 24.2055 -0.0010305 24.6963 8.35682e-06V8.35682e-06ZM0.633387 20.4275L9.2053 6.50944C9.92292 5.68391 11.5494 5.68391 12.2661 6.50944L17.8325 15.5393L20.0389 11.9582C20.5494 11.3687 21.7057 11.3687 22.2145 11.9582L28.302 21.8443C29.4512 23.7112 28.2379 26 26.2044 26H3.58105C0.686024 26 -0.987829 23.0576 0.633387 20.4293V20.4275Z" fill="#02957D"/>
</svg>
