<svg width="19" height="18" viewBox="0 0 19 18" fill="none" xmlns="http://www.w3.org/2000/svg">
<path d="M4.19437 2.60037C1.85595 4.29933 0.686745 5.14881 0.22753 6.40361C0.190692 6.50427 0.157558 6.60624 0.128194 6.70933C-0.237846 7.9944 0.208752 9.36889 1.10195 12.1179C1.99514 14.8668 2.44174 16.2413 3.49322 17.0658C3.57757 17.132 3.66432 17.195 3.75328 17.2548C4.1274 17.5061 4.53976 17.6727 5.03294 17.7831V13.8716C5.03294 11.5713 6.8977 9.70651 9.19801 9.70651C11.4983 9.70651 13.3631 11.5713 13.3631 13.8716V17.7831C13.8563 17.6727 14.2686 17.5061 14.6427 17.2548C14.7317 17.195 14.8185 17.132 14.9028 17.0658C15.9543 16.2413 16.4009 14.8668 17.2941 12.1179C18.1873 9.36889 18.6339 7.9944 18.2678 6.70933C18.2385 6.60624 18.2053 6.50427 18.1685 6.40361C17.7093 5.14881 16.5401 4.29933 14.2017 2.60038C11.8632 0.90142 10.694 0.051932 9.35874 0.00294715C9.25162 -0.000982385 9.1444 -0.000982385 9.03728 0.00294715C7.70199 0.051932 6.53278 0.901414 4.19437 2.60037Z" fill="#AB52F9"/>
<path fill-rule="evenodd" clip-rule="evenodd" d="M12.0478 17.9521V13.8716C12.0478 12.2977 10.7719 11.0218 9.19801 11.0218C7.62411 11.0218 6.34822 12.2977 6.34822 13.8716V17.9521C7.11368 18 8.03983 18 9.19801 18C10.3562 18 11.2823 18 12.0478 17.9521ZM9.85565 13.8716C9.85565 13.5084 9.56121 13.2139 9.19801 13.2139C8.8348 13.2139 8.54036 13.5084 8.54036 13.8716V15.6253C8.54036 15.9885 8.8348 16.2829 9.19801 16.2829C9.56121 16.2829 9.85565 15.9885 9.85565 15.6253V13.8716Z" fill="#AB52F9"/>
</svg>
