<svg width="22" height="22" viewBox="0 0 22 22" fill="none" xmlns="http://www.w3.org/2000/svg">
<path d="M9.79733 5.74343C9.86389 5.70501 9.93153 5.67046 9.99999 5.63972V9.66994C8.37301 8.95144 8.22063 6.65374 9.79733 5.74343Z" fill="#102339"/>
<path d="M11.5 15.8604V11.83C13.1272 12.5484 13.2796 14.8462 11.7029 15.7566C11.6362 15.795 11.5685 15.8296 11.5 15.8604Z" fill="#102339"/>
<path fill-rule="evenodd" clip-rule="evenodd" d="M0 10.75C0 4.81294 4.81294 0 10.75 0C16.6871 0 21.5 4.81294 21.5 10.75C21.5 16.6871 16.6871 21.5 10.75 21.5C4.81294 21.5 0 16.6871 0 10.75ZM11.5 3.75C11.5 3.33579 11.1642 3 10.75 3C10.3358 3 9.99999 3.33579 9.99999 3.75V4.05809C9.67325 4.14007 9.35262 4.26814 9.04733 4.4444C6.32547 6.01586 6.67142 10.0489 9.62115 11.1339L9.99999 11.2732V15.9694C9.46513 15.8186 8.98724 15.467 8.68805 14.9488L8.31248 14.2983C8.10538 13.9395 7.64668 13.8166 7.28796 14.0237C6.92924 14.2308 6.80634 14.6895 7.01344 15.0483L7.38901 15.6988C7.96747 16.7007 8.94267 17.3296 9.99999 17.5035V17.75C9.99999 18.1642 10.3358 18.5 10.75 18.5C11.1642 18.5 11.5 18.1642 11.5 17.75V17.442C11.8268 17.36 12.1475 17.2319 12.4529 17.0556C15.1747 15.4841 14.8288 11.4511 11.8791 10.3661L11.5 10.2267V5.53051C12.035 5.68135 12.5129 6.03296 12.8122 6.55125L13.1877 7.20175C13.3948 7.56047 13.8535 7.68338 14.2122 7.47627C14.571 7.26916 14.6939 6.81047 14.4868 6.45175L14.1112 5.80125C13.5327 4.79927 12.5574 4.17031 11.5 3.99649V3.75Z" fill="#102339"/>
</svg>
