<svg width="13" height="16" viewBox="0 0 13 16" fill="none" xmlns="http://www.w3.org/2000/svg">
<path d="M8.18532 13.4637L7.71318 13.0935L8.18532 13.4637ZM4.47856 13.4637L4.00643 13.834L4.47856 13.4637ZM6.33194 15V14.4V15ZM11.0639 6.73763C11.0639 7.52743 10.6493 8.60185 9.97965 9.78575C9.32328 10.9462 8.47388 12.1235 7.71318 13.0935L8.65746 13.834C9.4362 12.8409 10.3261 11.6107 11.0241 10.3765C11.7089 9.16591 12.2639 7.85882 12.2639 6.73763H11.0639ZM4.9507 13.0935C4.19001 12.1235 3.34061 10.9462 2.68424 9.78575C2.01459 8.60185 1.6 7.52743 1.6 6.73763H0.4C0.4 7.85882 0.954976 9.16591 1.63975 10.3765C2.3378 11.6107 3.22769 12.8409 4.00643 13.834L4.9507 13.0935ZM1.6 6.73763C1.6 3.858 3.75924 1.6 6.33194 1.6V0.4C3.01514 0.4 0.4 3.27965 0.4 6.73763H1.6ZM6.33194 1.6C8.90465 1.6 11.0639 3.858 11.0639 6.73763H12.2639C12.2639 3.27965 9.64874 0.4 6.33194 0.4V1.6ZM7.71318 13.0935C7.29845 13.6224 7.03276 13.9579 6.79727 14.1718C6.58746 14.3624 6.46232 14.4 6.33194 14.4V15.6C6.85022 15.6 7.25019 15.3816 7.60413 15.0601C7.93237 14.7619 8.26904 14.3293 8.65746 13.834L7.71318 13.0935ZM4.00643 13.834C4.39485 14.3293 4.73152 14.7619 5.05976 15.0601C5.4137 15.3816 5.81366 15.6 6.33194 15.6V14.4C6.20157 14.4 6.07642 14.3624 5.86662 14.1718C5.63113 13.9579 5.36543 13.6224 4.9507 13.0935L4.00643 13.834ZM3.73246 6.99844C3.73246 8.43409 4.89629 9.59792 6.33194 9.59792V8.39792C5.55903 8.39792 4.93246 7.77135 4.93246 6.99844H3.73246ZM6.33194 9.59792C7.7676 9.59792 8.93142 8.43409 8.93142 6.99844H7.73142C7.73142 7.77135 7.10485 8.39792 6.33194 8.39792V9.59792ZM8.93142 6.99844C8.93142 5.56278 7.7676 4.39896 6.33194 4.39896V5.59896C7.10485 5.59896 7.73142 6.22553 7.73142 6.99844H8.93142ZM6.33194 4.39896C4.89629 4.39896 3.73246 5.56278 3.73246 6.99844H4.93246C4.93246 6.22553 5.55903 5.59896 6.33194 5.59896V4.39896Z" fill="white"/>
</svg>
