<svg width="12" height="15" viewBox="0 0 12 15" fill="none" xmlns="http://www.w3.org/2000/svg">
<path d="M6 14.4853L1.75734 10.2426C0.918228 9.40349 0.346791 8.33439 0.115286 7.17051C-0.11622 6.00663 0.00260455 4.80023 0.456732 3.70388C0.91086 2.60753 1.6799 1.67046 2.66659 1.01118C3.65328 0.351892 4.81332 0 6 0C7.18668 0 8.34672 0.351892 9.33341 1.01118C10.3201 1.67046 11.0891 2.60753 11.5433 3.70388C11.9974 4.80023 12.1162 6.00663 11.8847 7.17051C11.6532 8.33439 11.0818 9.40349 10.2427 10.2426L6 14.4853Z" fill="#02957D"/>
<path d="M5.99993 7.71428C5.54527 7.71428 5.10924 7.53367 4.78775 7.21218C4.46626 6.89069 4.28564 6.45466 4.28564 6C4.28564 5.54534 4.46626 5.10931 4.78775 4.78782C5.10924 4.46633 5.54527 4.28571 5.99993 4.28571C6.45459 4.28571 6.89062 4.46633 7.21211 4.78782C7.5336 5.10931 7.71422 5.54534 7.71422 6C7.71422 6.45466 7.5336 6.89069 7.21211 7.21218C6.89062 7.53367 6.45459 7.71428 5.99993 7.71428Z" fill="white"/>
</svg>
