<svg width="129" height="100" viewBox="0 0 129 100" fill="none" xmlns="http://www.w3.org/2000/svg">
<g clip-path="url(#clip0_830_5423)">
<path d="M73.4532 48.897C76.3559 48.897 78.709 46.5481 78.709 43.6507C78.709 40.7533 76.3559 38.4044 73.4532 38.4044C70.5504 38.4044 68.1973 40.7533 68.1973 43.6507C68.1973 46.5481 70.5504 48.897 73.4532 48.897Z" fill="#E6E6E6"/>
<path d="M86.3345 50.3925L80.842 44.91C81.263 44.2563 81.5483 43.525 81.681 42.7593C81.8136 41.9935 81.791 41.209 81.6143 40.4522C81.4377 39.6954 81.1107 38.9816 80.6526 38.3533C80.1946 37.7249 79.6149 37.1947 78.9478 36.7941C77.6917 36.0451 76.1996 35.7942 74.767 36.0913C73.3344 36.3883 72.0658 37.2116 71.2125 38.3979C70.4273 39.4969 70.0502 40.8346 70.146 42.181C70.2418 43.5274 70.8045 44.7985 71.7374 45.7756C72.6703 46.7528 73.9152 47.375 75.2579 47.5353C76.6006 47.6956 77.9573 47.384 79.0948 46.654L84.5873 52.1365C84.8191 52.3675 85.1332 52.4973 85.4608 52.4972C85.7883 52.4971 86.1024 52.3672 86.334 52.136C86.5656 51.9048 86.6958 51.5913 86.6959 51.2643C86.696 50.9374 86.566 50.6238 86.3345 50.3925ZM78.8897 44.7053C78.2092 45.3847 77.3137 45.8074 76.3558 45.9016C75.398 45.9958 74.4371 45.7556 73.6368 45.2218C72.8366 44.6881 72.2465 43.8939 71.9671 42.9746C71.6877 42.0552 71.7363 41.0676 72.1046 40.1801C72.4729 39.2925 73.1381 38.5598 73.987 38.107C74.8358 37.6541 75.8156 37.509 76.7596 37.6964C77.7036 37.8838 78.5533 38.3922 79.1638 39.1348C79.7744 39.8774 80.1081 40.8084 80.1081 41.7691C80.1088 42.3145 80.0016 42.8547 79.7925 43.3586C79.5834 43.8625 79.2766 44.3202 78.8897 44.7053Z" fill="#102339"/>
<path d="M126.149 58.4794C140.195 73.9848 99.477 96.3303 66.5756 96.3303C33.6743 96.3303 10.9118 79.0165 7.00255 58.4794C-2.47596 8.68383 87.7618 -22.966 66.5756 20.6284C35.6943 84.1722 115.087 46.2685 126.149 58.4794Z" fill="#E6E6E6"/>
<path d="M119.846 62.1491C133.893 77.6545 93.1747 100 60.2734 100C27.3721 100 4.60953 82.6862 0.700308 62.1491C-8.77821 12.3535 81.4596 -19.2963 60.2734 24.2981C29.3921 87.8419 108.785 49.9382 119.846 62.1491Z" fill="#102339"/>
<path d="M19.6417 25.7957C9.78539 25.3626 2.14326 23.2404 2.24365 20.9643C2.30385 19.5998 5.09328 18.5025 9.89667 17.954C9.91386 17.9519 9.93129 17.9532 9.94797 17.9579C9.96464 17.9626 9.98022 17.9705 9.99381 17.9812C10.0074 17.9919 10.0187 18.0052 10.0272 18.0203C10.0356 18.0354 10.0409 18.052 10.0429 18.0692C10.0449 18.0863 10.0434 18.1037 10.0386 18.1203C10.0338 18.137 10.0258 18.1525 10.015 18.1659C10.0042 18.1794 9.99077 18.1907 9.97559 18.199C9.96041 18.2073 9.94373 18.2125 9.92651 18.2144C5.40171 18.7311 2.55834 19.7893 2.506 20.9759C2.4152 23.0341 10.2677 25.1214 19.6532 25.5339C29.0388 25.9464 37.0447 24.556 37.1355 22.4978C37.188 21.3063 34.4311 19.9991 29.9406 19.0866C29.9236 19.0832 29.9075 19.0765 29.8932 19.0669C29.8788 19.0572 29.8665 19.0449 29.857 19.0305C29.8474 19.0162 29.8408 19.0001 29.8375 18.9831C29.8342 18.9662 29.8343 18.9488 29.8377 18.9319C29.8412 18.915 29.8479 18.8989 29.8576 18.8847C29.8673 18.8704 29.8797 18.8581 29.8941 18.8486C29.9085 18.8391 29.9247 18.8326 29.9416 18.8293C29.9586 18.8261 29.9761 18.8262 29.993 18.8297C34.7593 19.7983 37.4582 21.1395 37.3978 22.5093C37.2974 24.7854 29.498 26.2289 19.6417 25.7957Z" fill="#02957D"/>
<path d="M10.8877 26.177C11.7122 27.7405 12.9337 29.0604 14.4298 30.0047C15.9259 30.949 17.6442 31.4846 19.4128 31.5579C21.1814 31.6312 22.9382 31.2396 24.5076 30.4222C26.0769 29.6049 27.4037 28.3906 28.3552 26.9007C22.5238 26.9791 16.6925 26.7375 10.8877 26.177Z" fill="#02957D"/>
<path d="M29.4455 24.1437C29.9417 22.658 30.0847 21.0774 29.8631 19.527C29.6415 17.9766 29.0615 16.499 28.1689 15.211C27.2762 13.9231 26.0955 12.8602 24.7202 12.1065C23.3449 11.3528 21.8127 10.9289 20.2449 10.8685C18.6771 10.808 17.1167 11.1127 15.6873 11.7583C14.2578 12.4039 12.9985 13.3727 12.009 14.5881C11.0195 15.8035 10.327 17.2321 9.98635 18.7608C9.64565 20.2896 9.66609 21.8765 10.0461 23.396C16.4529 24.4816 22.9738 24.7329 29.4455 24.1437Z" fill="#02957D"/>
<path d="M22.1675 17.3786C22.8202 17.3786 23.3492 16.8505 23.3492 16.1991C23.3492 15.5476 22.8202 15.0195 22.1675 15.0195C21.5149 15.0195 20.9858 15.5476 20.9858 16.1991C20.9858 16.8505 21.5149 17.3786 22.1675 17.3786Z" fill="white"/>
<path d="M16.0862 21.9644C17.1739 21.9644 18.0557 21.0842 18.0557 19.9985C18.0557 18.9128 17.1739 18.0326 16.0862 18.0326C14.9985 18.0326 14.1167 18.9128 14.1167 19.9985C14.1167 21.0842 14.9985 21.9644 16.0862 21.9644Z" fill="white"/>
<path d="M45.811 20.0387C46.5361 20.0387 47.124 19.452 47.124 18.7282C47.124 18.0044 46.5361 17.4176 45.811 17.4176C45.0859 17.4176 44.498 18.0044 44.498 18.7282C44.498 19.452 45.0859 20.0387 45.811 20.0387Z" fill="#02957D"/>
<path d="M16.1374 60.1428C16.5725 60.1428 16.9252 59.7907 16.9252 59.3564C16.9252 58.9221 16.5725 58.5701 16.1374 58.5701C15.7023 58.5701 15.3496 58.9221 15.3496 59.3564C15.3496 59.7907 15.7023 60.1428 16.1374 60.1428Z" fill="#E6E6E6"/>
<path d="M71.2829 87.141C71.718 87.141 72.0707 86.7889 72.0707 86.3546C72.0707 85.9203 71.718 85.5682 71.2829 85.5682C70.8478 85.5682 70.4951 85.9203 70.4951 86.3546C70.4951 86.7889 70.8478 87.141 71.2829 87.141Z" fill="#E6E6E6"/>
<path d="M19.9452 44.9399C20.1627 44.9399 20.3391 44.7639 20.3391 44.5467C20.3391 44.3296 20.1627 44.1536 19.9452 44.1536C19.7276 44.1536 19.5513 44.3296 19.5513 44.5467C19.5513 44.7639 19.7276 44.9399 19.9452 44.9399Z" fill="#E6E6E6"/>
<path d="M52.5072 74.2972C52.7247 74.2972 52.9011 74.1212 52.9011 73.9041C52.9011 73.6869 52.7247 73.5109 52.5072 73.5109C52.2896 73.5109 52.1133 73.6869 52.1133 73.9041C52.1133 74.1212 52.2896 74.2972 52.5072 74.2972Z" fill="#E6E6E6"/>
<path d="M111.723 70.4965C111.941 70.4965 112.117 70.3204 112.117 70.1033C112.117 69.8861 111.941 69.7101 111.723 69.7101C111.506 69.7101 111.33 69.8861 111.33 70.1033C111.33 70.3204 111.506 70.4965 111.723 70.4965Z" fill="#E6E6E6"/>
<path d="M93.2103 82.1608C93.4279 82.1608 93.6042 81.9847 93.6042 81.7676C93.6042 81.5504 93.4279 81.3744 93.2103 81.3744C92.9928 81.3744 92.8164 81.5504 92.8164 81.7676C92.8164 81.9847 92.9928 82.1608 93.2103 82.1608Z" fill="#E6E6E6"/>
<path d="M73.909 68.0063C74.1266 68.0063 74.3029 67.8303 74.3029 67.6132C74.3029 67.396 74.1266 67.22 73.909 67.22C73.6915 67.22 73.5151 67.396 73.5151 67.6132C73.5151 67.8303 73.6915 68.0063 73.909 68.0063Z" fill="#E6E6E6"/>
<path d="M48.9623 29.2129C49.1798 29.2129 49.3562 29.0369 49.3562 28.8197C49.3562 28.6026 49.1798 28.4265 48.9623 28.4265C48.7447 28.4265 48.5684 28.6026 48.5684 28.8197C48.5684 29.0369 48.7447 29.2129 48.9623 29.2129Z" fill="#E6E6E6"/>
<path d="M52.1131 9.81604C52.3307 9.81604 52.507 9.64 52.507 9.42285C52.507 9.2057 52.3307 9.02966 52.1131 9.02966C51.8956 9.02966 51.7192 9.2057 51.7192 9.42285C51.7192 9.64 51.8956 9.81604 52.1131 9.81604Z" fill="#E6E6E6"/>
<path d="M50.2753 91.4659C50.4928 91.4659 50.6692 91.2899 50.6692 91.0728C50.6692 90.8556 50.4928 90.6796 50.2753 90.6796C50.0577 90.6796 49.8813 90.8556 49.8813 91.0728C49.8813 91.2899 50.0577 91.4659 50.2753 91.4659Z" fill="#E6E6E6"/>
<path d="M30.8426 83.2092C31.0602 83.2092 31.2365 83.0332 31.2365 82.816C31.2365 82.5989 31.0602 82.4229 30.8426 82.4229C30.6251 82.4229 30.4487 82.5989 30.4487 82.816C30.4487 83.0332 30.6251 83.2092 30.8426 83.2092Z" fill="#E6E6E6"/>
<path d="M92.4222 69.0548C92.6398 69.0548 92.8161 68.8788 92.8161 68.6616C92.8161 68.4445 92.6398 68.2684 92.4222 68.2684C92.2047 68.2684 92.0283 68.4445 92.0283 68.6616C92.0283 68.8788 92.2047 69.0548 92.4222 69.0548Z" fill="#E6E6E6"/>
<path d="M19.4815 30.6414C20.1341 30.6414 20.6632 30.1133 20.6632 29.4619C20.6632 28.8104 20.1341 28.2823 19.4815 28.2823C18.8289 28.2823 18.2998 28.8104 18.2998 29.4619C18.2998 30.1133 18.8289 30.6414 19.4815 30.6414Z" fill="white"/>
<path d="M46.205 47.5612C46.205 51.0841 40.7482 59.2931 39.1536 61.6168C39.1055 61.6871 39.0409 61.7445 38.9655 61.7843C38.8901 61.824 38.8061 61.8447 38.7209 61.8447C38.6356 61.8447 38.5517 61.824 38.4763 61.7843C38.4009 61.7445 38.3363 61.6871 38.2882 61.6168C36.6935 59.2931 31.2368 51.0841 31.2368 47.5612C31.2368 46.5802 31.4304 45.6087 31.8065 44.7024C32.1826 43.7961 32.7339 42.9725 33.4289 42.2788C34.1238 41.5852 34.9488 41.0349 35.8569 40.6595C36.7649 40.284 37.7381 40.0908 38.7209 40.0908C39.7037 40.0908 40.6769 40.284 41.5849 40.6595C42.4929 41.0349 43.318 41.5852 44.0129 42.2788C44.7079 42.9725 45.2592 43.7961 45.6353 44.7024C46.0114 45.6087 46.205 46.5802 46.205 47.5612Z" fill="white"/>
<path d="M38.7208 50.8376C40.8237 50.8376 42.5285 49.136 42.5285 47.0369C42.5285 44.9378 40.8237 43.2362 38.7208 43.2362C36.6178 43.2362 34.9131 44.9378 34.9131 47.0369C34.9131 49.136 36.6178 50.8376 38.7208 50.8376Z" fill="#02957D"/>
<path d="M38.6554 65.9095C41.0846 65.9095 43.0539 65.5281 43.0539 65.0576C43.0539 64.5871 41.0846 64.2057 38.6554 64.2057C36.2261 64.2057 34.2568 64.5871 34.2568 65.0576C34.2568 65.5281 36.2261 65.9095 38.6554 65.9095Z" fill="white"/>
<path d="M107.253 41.6662C107.219 41.7307 107.191 41.7977 107.168 41.8665L100.894 43.6066L99.7639 42.5022L97.8711 43.9875L99.6823 46.1368C99.8286 46.3104 100.027 46.432 100.249 46.4832C100.47 46.5345 100.702 46.5126 100.91 46.421L107.687 43.4349C107.917 43.5942 108.19 43.6798 108.47 43.6804C108.75 43.681 109.024 43.5966 109.254 43.4383C109.485 43.28 109.662 43.0554 109.761 42.7943C109.861 42.5332 109.879 42.2481 109.812 41.9767C109.745 41.7054 109.597 41.4608 109.388 41.2754C109.178 41.0901 108.918 40.9727 108.64 40.939C108.362 40.9053 108.08 40.9568 107.833 41.0867C107.585 41.2166 107.382 41.4187 107.253 41.6662H107.253Z" fill="#FFB7B7"/>
<path d="M100.673 43.7086L98.3185 45.5381C98.2515 45.5902 98.1741 45.6272 98.0914 45.6467C98.0088 45.6662 97.9229 45.6676 97.8397 45.651C97.7564 45.6344 97.6777 45.6 97.609 45.5503C97.5402 45.5006 97.483 45.4366 97.4412 45.3629L95.9777 42.7774C95.7127 42.4337 95.5951 41.9992 95.6507 41.5691C95.7062 41.139 95.9304 40.7484 96.274 40.4831C96.6177 40.2177 97.0527 40.0992 97.4837 40.1535C97.9148 40.2079 98.3066 40.4306 98.5734 40.773L100.719 42.8167C100.78 42.8752 100.828 42.9462 100.859 43.025C100.891 43.1037 100.905 43.1883 100.901 43.2729C100.896 43.3576 100.874 43.4403 100.835 43.5155C100.795 43.5907 100.74 43.6565 100.673 43.7086V43.7086Z" fill="#02957D"/>
<path d="M107.854 40.8009L110.242 41.8733C110.342 41.9182 110.42 42.0009 110.459 42.1033C110.498 42.2056 110.495 42.3192 110.45 42.419L110.167 43.0463C110.2 43.0614 110.226 43.089 110.239 43.123C110.252 43.1571 110.251 43.1949 110.236 43.2282L110.123 43.4791C110.108 43.5123 110.08 43.5382 110.046 43.5512C110.012 43.5641 109.974 43.563 109.941 43.5481L109.828 43.7991C109.861 43.8141 109.887 43.8417 109.9 43.8758C109.913 43.9099 109.912 43.9477 109.897 43.981L109.784 44.2319C109.769 44.2651 109.741 44.291 109.707 44.3039C109.673 44.3168 109.635 44.3158 109.601 44.3009L108.075 47.6883C108.03 47.7881 107.947 47.866 107.844 47.9048C107.742 47.9437 107.628 47.9402 107.528 47.8953L105.14 46.8229C105.04 46.778 104.962 46.6953 104.923 46.5929C104.884 46.4906 104.887 46.377 104.932 46.2772L107.307 41.0079C107.352 40.9081 107.435 40.8302 107.538 40.7914C107.64 40.7525 107.754 40.756 107.854 40.8009Z" fill="#102339"/>
<path d="M105.573 46.4891L107.489 47.3503C107.585 47.3932 107.694 47.3964 107.793 47.3593C107.891 47.3222 107.971 47.2477 108.014 47.1522L108.899 45.1877L109.206 44.5067L110.007 42.7293C110.05 42.6337 110.053 42.525 110.016 42.4271C109.979 42.3291 109.904 42.2498 109.809 42.2065L109.206 41.9355L107.892 41.3453C107.796 41.3026 107.687 41.2995 107.588 41.3369C107.49 41.3743 107.411 41.4491 107.368 41.5448L106.593 43.2631L105.711 45.2193L105.375 45.9664C105.332 46.062 105.329 46.1707 105.366 46.2687C105.403 46.3666 105.478 46.4459 105.573 46.4891Z" fill="#F2F2F2"/>
<path d="M101.57 70.83L103.18 70.8299L103.946 64.6323L101.57 64.6325L101.57 70.83Z" fill="#FFB7B7"/>
<path d="M101.16 70.3054L104.33 70.3053H104.33C104.595 70.3053 104.858 70.3574 105.103 70.4588C105.348 70.5601 105.571 70.7087 105.758 70.8959C105.946 71.0832 106.095 71.3055 106.196 71.5501C106.298 71.7948 106.35 72.057 106.35 72.3218V72.3873L101.16 72.3875L101.16 70.3054Z" fill="#102339"/>
<path d="M105.772 70.4368L107.381 70.4367L108.147 64.2391L105.771 64.2393L105.772 70.4368Z" fill="#FFB7B7"/>
<path d="M105.361 69.9122L108.531 69.9121H108.532C108.797 69.9121 109.06 69.9643 109.305 70.0656C109.55 70.1669 109.772 70.3155 109.96 70.5027C110.148 70.69 110.296 70.9123 110.398 71.1569C110.5 71.4016 110.552 71.6638 110.552 71.9286V71.9941L105.361 71.9943L105.361 69.9122Z" fill="#102339"/>
<path d="M94.3497 56.287C94.6927 57.3018 95.3432 58.1851 96.2112 58.8146C97.0792 59.4441 98.1218 59.7887 99.1946 59.8007L99.2761 59.802C100.107 59.8256 101.083 59.5583 102.04 59.1743C103.931 58.4154 105.746 57.2005 106.228 56.8663L105.412 64.7023L105.081 67.8792C105.072 67.9614 105.081 68.0444 105.107 68.1229C105.133 68.2014 105.175 68.2737 105.23 68.3351C105.286 68.3964 105.353 68.4455 105.429 68.4792C105.504 68.5129 105.586 68.5304 105.669 68.5306H107.708C107.839 68.5306 107.966 68.4875 108.069 68.4078C108.173 68.3281 108.247 68.2164 108.281 68.0902L111.647 55.2923C111.748 54.9092 111.756 54.5077 111.671 54.1208C111.585 53.734 111.409 53.3731 111.156 53.0678C110.903 52.7626 110.581 52.5219 110.216 52.3656C109.852 52.2093 109.455 52.142 109.059 52.1691L102.066 52.6475L102.555 50.6973L96.3126 50.2832L96.2943 50.2963C96.1446 50.4051 95.9988 50.5191 95.8596 50.6384C95.5116 50.9321 95.2032 51.2696 94.9418 51.6423C94.4744 52.311 94.1763 53.083 94.0731 53.8919C93.97 54.7009 94.0649 55.5227 94.3497 56.287Z" fill="#102339"/>
<path d="M94.3497 56.2871C94.6927 57.3018 95.3432 58.1851 96.2112 58.8146C97.0792 59.4441 98.1218 59.7887 99.1946 59.8008C100.221 59.2825 101.211 58.6962 102.158 58.0459L102.04 59.1743L101.011 69.0588C101.002 69.141 101.011 69.224 101.037 69.3025C101.063 69.381 101.105 69.4533 101.16 69.5146C101.215 69.576 101.283 69.6251 101.359 69.6588C101.434 69.6924 101.516 69.71 101.599 69.7102H103.638C103.769 69.7102 103.896 69.667 103.999 69.5874C104.103 69.5077 104.177 69.396 104.21 69.2698L105.412 64.7024L107.577 56.4719C107.678 56.0888 107.686 55.6872 107.6 55.3004C107.515 54.9136 107.339 54.5526 107.086 54.2474C106.833 53.9422 106.511 53.7015 106.146 53.5452C105.781 53.3889 105.385 53.3216 104.989 53.3487L97.9959 53.8271L98.4843 51.8769L94.9418 51.6423C94.4743 52.3111 94.1763 53.083 94.0731 53.892C93.97 54.7009 94.0649 55.5227 94.3497 56.2871Z" fill="#102339"/>
<path d="M95.851 51.0906L95.8041 51.0849L94.7149 45.7397C94.7056 45.6933 93.8152 41.0827 96.5448 38.6724L96.5923 38.3425C96.6045 38.2581 96.6348 38.1773 96.6813 38.1057C96.7278 38.0341 96.7892 37.9735 96.8615 37.9279C96.9337 37.8823 97.015 37.8529 97.0997 37.8418C97.1844 37.8306 97.2705 37.8379 97.3521 37.8631L99.9236 38.6593C100.069 38.704 100.192 38.8033 100.266 38.9362C100.34 39.0692 100.359 39.2255 100.32 39.3725L100.07 40.3216C100.417 40.7279 104.497 45.6311 103.076 49.4086L102.439 51.8924L95.851 51.0906Z" fill="#02957D"/>
<path d="M106.528 46.9187C106.467 46.9573 106.408 47.0007 106.354 47.0485L100.065 45.3634L99.6535 43.8386L97.2671 44.1572L97.7321 46.9271C97.7697 47.1508 97.879 47.3564 98.0436 47.5129C98.2081 47.6694 98.4191 47.7684 98.6449 47.795L106.002 48.6625C106.119 48.9163 106.31 49.1287 106.551 49.2712C106.792 49.4138 107.07 49.4798 107.349 49.4605C107.629 49.4412 107.895 49.3375 108.114 49.1633C108.333 48.989 108.493 48.7523 108.574 48.4848C108.655 48.2173 108.652 47.9317 108.566 47.6658C108.48 47.3999 108.315 47.1664 108.093 46.9964C107.871 46.8264 107.602 46.7279 107.323 46.714C107.043 46.7001 106.766 46.7715 106.528 46.9187H106.528Z" fill="#FFB7B7"/>
<path d="M99.8223 45.3391L96.8626 45.7196C96.7784 45.7304 96.6928 45.723 96.6118 45.6979C96.5307 45.6727 96.456 45.6304 96.3928 45.5738C96.3295 45.5173 96.2793 45.4478 96.2454 45.3701C96.2115 45.2923 96.1948 45.2083 96.1964 45.1235L96.2528 42.1544C96.1998 41.724 96.3198 41.2902 96.5867 40.9481C96.8536 40.6059 97.2456 40.3834 97.6766 40.3292C98.1076 40.2751 98.5425 40.3938 98.886 40.6593C99.2295 40.9247 99.4535 41.3154 99.5089 41.7454L100.315 44.5939C100.338 44.6755 100.344 44.7611 100.331 44.8448C100.318 44.9285 100.287 45.0085 100.24 45.0792C100.193 45.1499 100.131 45.2097 100.059 45.2546C99.9874 45.2994 99.9065 45.3282 99.8223 45.3391Z" fill="#02957D"/>
<path d="M98.9895 37.1376C100.771 37.1376 102.214 35.6964 102.214 33.9187C102.214 32.1409 100.771 30.6997 98.9895 30.6997C97.2085 30.6997 95.7646 32.1409 95.7646 33.9187C95.7646 35.6964 97.2085 37.1376 98.9895 37.1376Z" fill="#FFB7B7"/>
<path d="M98.8195 34.1874L98.4158 33.4536C97.651 36.5639 99.0019 39.138 99.0019 39.138L93.7588 36.7002L93.8087 35.8352L93.2899 36.4229L92.5445 36.0128L92.446 35.4518L91.8833 35.5909L93.9373 31.8705C95.9307 28.3302 98.8289 29.6819 98.8289 29.6819C103.439 29.4631 102.876 34.0036 102.876 34.0036L98.8195 34.1874Z" fill="#102339"/>
<path d="M62.1098 58.1754C62.8533 57.6997 61.9491 54.9676 60.0902 52.0731C58.2313 49.1787 56.1215 47.2179 55.378 47.6937C54.6345 48.1695 55.5387 50.9016 57.3976 53.796C59.2565 56.6905 61.3663 58.6512 62.1098 58.1754Z" fill="#102339"/>
</g>
<defs>
<clipPath id="clip0_830_5423">
<rect width="129" height="100" fill="white"/>
</clipPath>
</defs>
</svg>
