<svg width="40" height="24" viewBox="0 0 40 24" fill="none" xmlns="http://www.w3.org/2000/svg">
<rect opacity="0.06" width="40" height="24" rx="4" fill="#FF5A00"/>
<path d="M13.3342 19.9649V18.903C13.3342 18.4968 13.0868 18.2309 12.662 18.2309C12.4496 18.2309 12.2187 18.301 12.0599 18.5319C11.9362 18.3381 11.7589 18.2309 11.4929 18.2309C11.3156 18.2309 11.1383 18.2845 10.9981 18.4783V18.2659H10.627V19.9649H10.9981V19.0267C10.9981 18.7257 11.1569 18.5834 11.4043 18.5834C11.6517 18.5834 11.7754 18.7422 11.7754 19.0267V19.9649H12.1465V19.0267C12.1465 18.7257 12.3239 18.5834 12.5527 18.5834C12.8002 18.5834 12.9239 18.7422 12.9239 19.0267V19.9649H13.3342ZM18.8394 18.2659H18.2373V17.7525H17.8662V18.2659H17.5301V18.602H17.8662V19.3814C17.8662 19.7711 18.0249 19.9999 18.4497 19.9999C18.6084 19.9999 18.7858 19.9463 18.9095 19.8762L18.8022 19.5566C18.695 19.6267 18.5713 19.6453 18.4827 19.6453C18.3053 19.6453 18.2352 19.5381 18.2352 19.3628V18.602H18.8373V18.2659H18.8394ZM21.9899 18.2288C21.7775 18.2288 21.6353 18.336 21.5466 18.4762V18.2639H21.1755V19.9628H21.5466V19.0061C21.5466 18.7237 21.6703 18.5628 21.9012 18.5628C21.9713 18.5628 22.06 18.5814 22.1322 18.5979L22.2394 18.2432C22.1652 18.2288 22.06 18.2288 21.9899 18.2288ZM17.229 18.4061C17.0517 18.2824 16.8043 18.2288 16.5383 18.2288C16.1136 18.2288 15.8311 18.4412 15.8311 18.7773C15.8311 19.0597 16.0435 19.2206 16.4146 19.2721L16.5919 19.2907C16.7857 19.3257 16.893 19.3793 16.893 19.468C16.893 19.5917 16.7507 19.6804 16.5033 19.6804C16.2558 19.6804 16.06 19.5917 15.9363 19.503L15.7589 19.7855C15.9528 19.9278 16.2187 19.9979 16.4847 19.9979C16.9796 19.9979 17.2641 19.767 17.2641 19.4494C17.2641 19.1484 17.0332 18.9896 16.6806 18.936L16.5033 18.9175C16.3445 18.8989 16.2208 18.8639 16.2208 18.7587C16.2208 18.635 16.3445 18.5649 16.5404 18.5649C16.7528 18.5649 16.9651 18.6535 17.0723 18.7072L17.229 18.4061ZM27.1033 18.2288C26.8909 18.2288 26.7487 18.336 26.66 18.4762V18.2639H26.2889V19.9628H26.66V19.0061C26.66 18.7237 26.7837 18.5628 27.0147 18.5628C27.0848 18.5628 27.1734 18.5814 27.2456 18.5979L27.3528 18.2474C27.2806 18.2288 27.1755 18.2288 27.1033 18.2288ZM22.361 19.1154C22.361 19.6288 22.7157 19.9999 23.2641 19.9999C23.5115 19.9999 23.6889 19.9463 23.8662 19.8061L23.6889 19.5051C23.5466 19.6123 23.4064 19.6639 23.2456 19.6639C22.9445 19.6639 22.7322 19.4515 22.7322 19.1154C22.7322 18.7958 22.9445 18.5834 23.2456 18.567C23.4043 18.567 23.5466 18.6206 23.6889 18.7257L23.8662 18.4247C23.6889 18.2824 23.5115 18.2309 23.2641 18.2309C22.7157 18.2288 22.361 18.602 22.361 19.1154ZM25.794 19.1154V18.2659H25.4229V18.4783C25.2992 18.3195 25.1219 18.2309 24.8909 18.2309C24.4126 18.2309 24.0414 18.602 24.0414 19.1154C24.0414 19.6288 24.4126 19.9999 24.8909 19.9999C25.1384 19.9999 25.3157 19.9113 25.4229 19.7525V19.9649H25.794V19.1154ZM24.4311 19.1154C24.4311 18.8144 24.625 18.567 24.9445 18.567C25.2456 18.567 25.4579 18.7979 25.4579 19.1154C25.4579 19.4164 25.2456 19.6639 24.9445 19.6639C24.627 19.6453 24.4311 19.4144 24.4311 19.1154ZM19.9899 18.2288C19.495 18.2288 19.1404 18.5834 19.1404 19.1133C19.1404 19.6453 19.495 19.9979 20.0084 19.9979C20.2559 19.9979 20.5033 19.9278 20.6992 19.767L20.5218 19.501C20.3796 19.6082 20.2023 19.6783 20.027 19.6783C19.7961 19.6783 19.5672 19.5711 19.5136 19.2721H20.7693C20.7693 19.2185 20.7693 19.1834 20.7693 19.1298C20.7858 18.5834 20.4662 18.2288 19.9899 18.2288ZM19.9899 18.5484C20.2208 18.5484 20.3796 18.6907 20.4146 18.9546H19.5301C19.5651 18.7257 19.7239 18.5484 19.9899 18.5484ZM29.2105 19.1154V17.5938H28.8394V18.4783C28.7157 18.3195 28.5384 18.2309 28.3074 18.2309C27.8291 18.2309 27.458 18.602 27.458 19.1154C27.458 19.6288 27.8291 19.9999 28.3074 19.9999C28.5549 19.9999 28.7322 19.9113 28.8394 19.7525V19.9649H29.2105V19.1154ZM27.8477 19.1154C27.8477 18.8144 28.0415 18.567 28.3611 18.567C28.6621 18.567 28.8745 18.7979 28.8745 19.1154C28.8745 19.4164 28.6621 19.6639 28.3611 19.6639C28.0415 19.6453 27.8477 19.4144 27.8477 19.1154ZM15.4229 19.1154V18.2659H15.0517V18.4783C14.928 18.3195 14.7507 18.2309 14.5198 18.2309C14.0414 18.2309 13.6703 18.602 13.6703 19.1154C13.6703 19.6288 14.0414 19.9999 14.5198 19.9999C14.7672 19.9999 14.9445 19.9113 15.0517 19.7525V19.9649H15.4229V19.1154ZM14.0435 19.1154C14.0435 18.8144 14.2373 18.567 14.5569 18.567C14.8579 18.567 15.0703 18.7979 15.0703 19.1154C15.0703 19.4164 14.8579 19.6639 14.5569 19.6639C14.2373 19.6453 14.0435 19.4144 14.0435 19.1154Z" fill="black"/>
<path d="M22.6808 5.36279H17.1055V15.3793H22.6808V5.36279Z" fill="#FF5A00"/>
<path d="M17.4764 10.3712C17.4764 8.3361 18.4331 6.52991 19.9012 5.36289C18.8208 4.5134 17.4579 4 15.9713 4C12.4496 4 9.6001 6.8495 9.6001 10.3712C9.6001 13.8928 12.4496 16.7423 15.9713 16.7423C17.4579 16.7423 18.8208 16.2289 19.9012 15.3794C18.4311 14.2289 17.4764 12.4062 17.4764 10.3712Z" fill="#EB001B"/>
<path d="M30.2024 10.3712C30.2024 13.8928 27.3529 16.7423 23.8313 16.7423C22.3447 16.7423 20.9818 16.2289 19.9014 15.3794C21.388 14.2104 22.3261 12.4062 22.3261 10.3712C22.3261 8.3361 21.3694 6.52991 19.9014 5.36289C20.9797 4.5134 22.3426 4 23.8292 4C27.3529 4 30.2024 6.86805 30.2024 10.3712Z" fill="#F79E1B"/>
</svg>
