<svg width="16" height="20" viewBox="0 0 16 20" fill="none" xmlns="http://www.w3.org/2000/svg">
<path d="M2.02104 5.7037C1.64246 2.67508 4.00397 0 7.05616 0H8.58687C10.0438 0 11.3435 0.608894 12.2636 1.57471C10.8188 1.62522 9.66292 2.81246 9.66292 4.26966C9.66292 5.75897 10.8702 6.96629 12.3596 6.96629C12.7878 6.96629 13.1927 6.86647 13.5523 6.68884C13.5944 7.40707 13.9108 8.08961 14.4476 8.58805L14.487 8.62469C15.9372 9.97143 16.2186 12.1617 15.156 13.8313C14.4033 15.0141 13.0984 15.7303 11.6964 15.7303H4.30694C2.68156 15.7303 1.19905 14.8017 0.48968 13.3393L0.396781 13.1478C-0.364254 11.5789 -0.00821269 9.69667 1.2733 8.51411C1.89173 7.94342 2.19675 7.10936 2.09237 6.27435L2.02104 5.7037Z" fill="#02957D"/>
<path d="M4.92889 17.2135C5.22675 16.9901 5.64932 17.0505 5.87271 17.3483L6.14238 17.7079C7.0862 18.9663 8.97384 18.9663 9.91766 17.7079L10.1873 17.3483C10.4107 17.0505 10.8333 16.9901 11.1311 17.2135C11.429 17.4369 11.4894 17.8594 11.266 18.1573L10.9963 18.5169C9.51316 20.4944 6.54687 20.4944 5.06372 18.5169L4.79406 18.1573C4.57067 17.8594 4.63103 17.4369 4.92889 17.2135Z" fill="#02957D"/>
<path d="M14.3221 4.26968C14.3221 5.26255 13.5172 6.06743 12.5243 6.06743C11.5314 6.06743 10.7266 5.26255 10.7266 4.26968C10.7266 3.2768 11.5314 2.47192 12.5243 2.47192C13.5172 2.47192 14.3221 3.2768 14.3221 4.26968Z" fill="#102339"/>
</svg>
