<svg width="16" height="16" viewBox="0 0 16 16" fill="none" xmlns="http://www.w3.org/2000/svg">
<path opacity="0.2" d="M0 4C0 1.79086 1.79086 0 4 0H12C14.2091 0 16 1.79086 16 4V12C16 14.2091 14.2091 16 12 16H4C1.79086 16 0 14.2091 0 12V4Z" fill="#02957D"/>
<path fill-rule="evenodd" clip-rule="evenodd" d="M6.83252 7.99996C6.83252 7.67739 7.09402 7.41589 7.41659 7.41589L12.3723 7.41589C12.6949 7.41589 12.9564 7.67739 12.9564 7.99996C12.9564 8.32254 12.6949 8.58403 12.3723 8.58403L7.41659 8.58404C7.09402 8.58404 6.83252 8.32254 6.83252 7.99996Z" fill="#02957D"/>
<path fill-rule="evenodd" clip-rule="evenodd" d="M12.3722 8.58411C12.0496 8.58411 11.7881 8.32261 11.7881 8.00004L11.7881 6.58411C11.7881 6.26153 12.0496 6.00004 12.3722 6.00004C12.6947 6.00004 12.9562 6.26153 12.9562 6.58411L12.9562 8.00004C12.9562 8.32261 12.6947 8.58411 12.3722 8.58411Z" fill="#02957D"/>
<path fill-rule="evenodd" clip-rule="evenodd" d="M10.6015 8.58411C10.924 8.58411 11.1855 8.32261 11.1855 8.00004L11.1855 6.58411C11.1855 6.26153 10.924 6.00004 10.6015 6.00004C10.2789 6.00004 10.0174 6.26153 10.0174 6.58411L10.0174 8.00004C10.0174 8.32261 10.2789 8.58411 10.6015 8.58411Z" fill="#02957D"/>
<path fill-rule="evenodd" clip-rule="evenodd" d="M6 7.16814C6.45942 7.16814 6.83186 7.54058 6.83186 8C6.83186 8.45942 6.45942 8.83186 6 8.83186C5.54058 8.83186 5.16814 8.45942 5.16814 8C5.16814 7.54058 5.54058 7.16814 6 7.16814ZM8 8C8 6.89543 7.10457 6 6 6C4.89543 6 4 6.89543 4 8C4 9.10457 4.89543 10 6 10C7.10457 10 8 9.10457 8 8Z" fill="#02957D"/>
</svg>
