<svg width="40" height="24" viewBox="0 0 40 24" fill="none" xmlns="http://www.w3.org/2000/svg">
<rect opacity="0.06" width="40" height="24" rx="4" fill="#009EE3"/>
<path fill-rule="evenodd" clip-rule="evenodd" d="M8.63777 8.00098C9.61755 8.00098 10.5216 8.53247 10.3979 9.85708C10.248 11.4313 9.40465 12.3024 8.07404 12.3062H6.91135C6.74418 12.3062 6.66322 12.4426 6.61974 12.7222L6.39485 14.1518C6.36112 14.3677 6.25017 14.4741 6.08675 14.4741H5.00502C4.8326 14.4741 4.77263 14.3639 4.81086 14.1173L5.70368 8.38779C5.74791 8.10593 5.85361 8.00098 6.04627 8.00098H8.63552H8.63777ZM6.87612 11.0685H7.75695C8.30793 11.0475 8.67375 10.6659 8.71048 9.97777C8.73297 9.55273 8.44586 9.24837 7.98933 9.25062L7.16023 9.25437L6.87612 11.0685ZM13.3388 14.0356C13.4377 13.9456 13.5382 13.8991 13.5239 14.0101L13.4887 14.2755C13.4707 14.4141 13.5254 14.4876 13.6544 14.4876H14.6154C14.7773 14.4876 14.856 14.4224 14.8958 14.172L15.488 10.4553C15.518 10.2686 15.4722 10.1772 15.3305 10.1772H14.2736C14.1783 10.1772 14.1319 10.2304 14.1071 10.3758L14.0682 10.6045C14.0479 10.7237 13.9932 10.7447 13.9422 10.6247C13.763 10.2004 13.3058 10.01 12.6678 10.025C11.1858 10.0557 10.1865 11.1809 10.0793 12.6232C9.99686 13.7387 10.796 14.615 11.85 14.615C12.6146 14.615 12.9564 14.3901 13.3418 14.0378L13.3388 14.0356ZM12.5336 13.4636C11.8957 13.4636 11.4512 12.9546 11.5434 12.3309C11.6356 11.7072 12.2323 11.1982 12.8702 11.1982C13.5082 11.1982 13.9527 11.7072 13.8605 12.3309C13.7683 12.9546 13.1723 13.4636 12.5336 13.4636ZM17.3688 10.1652H16.3943C16.1934 10.1652 16.1117 10.3151 16.1754 10.4995L17.3853 14.0423L16.1986 15.7283C16.0989 15.8692 16.1761 15.9974 16.3163 15.9974H17.4115C17.4754 16.0048 17.54 15.9936 17.5977 15.9653C17.6553 15.937 17.7037 15.8927 17.7369 15.8377L21.4581 10.5003C21.5728 10.3361 21.5188 10.1637 21.3307 10.1637H20.2939C20.1162 10.1637 20.045 10.2342 19.9431 10.3818L18.3913 12.6307L17.6979 10.3766C17.6574 10.2401 17.5562 10.1652 17.3696 10.1652H17.3688Z" fill="#113984"/>
<path fill-rule="evenodd" clip-rule="evenodd" d="M25.3294 8.0015C26.3092 8.0015 27.2132 8.533 27.0896 9.85761C26.9396 11.4318 26.0963 12.3029 24.7657 12.3067H23.6037C23.4366 12.3067 23.3556 12.4431 23.3121 12.7227L23.0872 14.1523C23.0535 14.3682 22.9426 14.4746 22.7791 14.4746H21.6974C21.525 14.4746 21.465 14.3644 21.5032 14.1178L22.3976 8.38681C22.4418 8.10495 22.5475 8 22.7402 8H25.3294V8.0015ZM23.5678 11.069H24.4486C24.9996 11.048 25.3654 10.6665 25.4021 9.9783C25.4246 9.55325 25.1375 9.2489 24.681 9.25115L23.8519 9.2549L23.5678 11.069ZM30.0304 14.0361C30.1293 13.9461 30.2298 13.8997 30.2155 14.0106L30.1803 14.276C30.1623 14.4147 30.217 14.4881 30.346 14.4881H31.307C31.4689 14.4881 31.5477 14.4229 31.5874 14.1725L32.1796 10.4558C32.2096 10.2692 32.1639 10.1777 32.0222 10.1777H30.9667C30.8715 10.1777 30.825 10.2309 30.8003 10.3764L30.7613 10.605C30.741 10.7242 30.6863 10.7452 30.6353 10.6252C30.4562 10.2009 29.9989 10.0105 29.361 10.0255C27.8789 10.0563 26.8797 11.1815 26.7725 12.6238C26.69 13.7392 27.4891 14.6156 28.5431 14.6156C29.3077 14.6156 29.6496 14.3907 30.0349 14.0383L30.0304 14.0361ZM29.226 13.4641C28.5881 13.4641 28.1435 12.9551 28.2358 12.3314C28.328 11.7077 28.9247 11.1987 29.5626 11.1987C30.2006 11.1987 30.6451 11.7077 30.5529 12.3314C30.4607 12.9551 29.864 13.4641 29.226 13.4641ZM33.6586 14.4941H32.5492C32.5299 14.495 32.5106 14.4916 32.4928 14.4841C32.475 14.4767 32.459 14.4654 32.446 14.4511C32.4331 14.4368 32.4234 14.4198 32.4178 14.4013C32.4122 14.3828 32.4107 14.3633 32.4135 14.3442L33.388 8.17017C33.3973 8.12803 33.4206 8.09028 33.4541 8.06306C33.4876 8.03584 33.5293 8.02075 33.5724 8.02024H34.6819C34.7012 8.01938 34.7204 8.02279 34.7383 8.03023C34.7561 8.03766 34.7721 8.04895 34.785 8.06327C34.798 8.07759 34.8076 8.0946 34.8133 8.11308C34.8189 8.13156 34.8204 8.15105 34.8176 8.17017L33.843 14.3442C33.834 14.3866 33.8109 14.4247 33.7774 14.4522C33.7439 14.4797 33.702 14.495 33.6586 14.4956V14.4941Z" fill="#009EE3"/>
</svg>
