<svg width="18" height="18" viewBox="0 0 18 18" fill="none" xmlns="http://www.w3.org/2000/svg">
<rect width="18" height="18" rx="7" fill="#FFC54D"/>
<path d="M9.5 7.4C9.5 7.12386 9.27614 6.9 9 6.9C8.72386 6.9 8.5 7.12386 8.5 7.4H9.5ZM7.8362 9.90553C7.64676 10.1065 7.65608 10.4229 7.857 10.6123C8.05793 10.8018 8.37437 10.7924 8.5638 10.5915L7.8362 9.90553ZM8.5 7.4V8.60584H9.5V7.4H8.5ZM8.5638 10.5915L8.81902 10.3208L8.09141 9.63484L7.8362 9.90553L8.5638 10.5915ZM12.5 9C12.5 10.933 10.933 12.5 9 12.5V13.5C11.4853 13.5 13.5 11.4853 13.5 9H12.5ZM9 12.5C7.067 12.5 5.5 10.933 5.5 9H4.5C4.5 11.4853 6.51472 13.5 9 13.5V12.5ZM5.5 9C5.5 7.067 7.067 5.5 9 5.5V4.5C6.51472 4.5 4.5 6.51472 4.5 9H5.5ZM9 5.5C10.933 5.5 12.5 7.067 12.5 9H13.5C13.5 6.51472 11.4853 4.5 9 4.5V5.5ZM8.5 8.60584C8.5 8.98839 8.35384 9.35649 8.09141 9.63484L8.81902 10.3208C9.2564 9.85692 9.5 9.24343 9.5 8.60584H8.5Z" fill="white"/>
</svg>
