<?xml version="1.0" encoding="UTF-8"?>
<!DOCTYPE svg PUBLIC "-//W3C//DTD SVG 1.1//EN" "http://www.w3.org/Graphics/SVG/1.1/DTD/svg11.dtd">
<!-- Creator: CorelDRAW X7 -->
<svg xmlns="http://www.w3.org/2000/svg" xml:space="preserve" width="0.853331in" height="0.853331in" version="1.1" shape-rendering="geometricPrecision" text-rendering="geometricPrecision" image-rendering="optimizeQuality" fill-rule="evenodd" clip-rule="evenodd"
viewBox="0 0 853 853"
 xmlns:xlink="http://www.w3.org/1999/xlink">
 <g id="Layer_x0020_1">
  <metadata id="CorelCorpID_0Corel-Layer"/>
  <g id="_439765144">
   <rect fill="#C7E4E1" y="1" width="853" height="853" rx="233" ry="233"/>
   <path fill="#15957D" d="M409 652c0,-23 35,-22 35,-1 0,23 -35,21 -35,1zm-108 -428l251 0 0 398 -251 0 0 -398zm85 -26c0,-3 3,-4 6,-4l69 0c9,0 7,8 2,8l-73 0c-2,0 -4,-2 -4,-4zm-110 2l0 455c0,8 6,18 10,22 2,2 6,5 9,6 4,2 7,4 13,4l237 0c5,0 8,-2 12,-3 3,-2 7,-4 10,-7 4,-4 10,-14 10,-22l0 -455c0,-12 -9,-23 -19,-28 -4,-2 -8,-4 -13,-4l-237 0c-16,0 -32,17 -32,32z"/>
  </g>
 </g>
</svg>
