<svg width="21" height="22" viewBox="0 0 21 22" fill="none" xmlns="http://www.w3.org/2000/svg">
<path fill-rule="evenodd" clip-rule="evenodd" d="M10.1631 0C7.67638 0 5.62586 1.86739 5.33733 4.27634C4.93447 4.3535 4.56332 4.46504 4.20731 4.62824C3.17849 5.09988 2.30753 5.85823 1.69885 6.81239C1.33044 7.3899 1.11183 8.03593 0.940102 8.82402C0.771851 9.59614 0.638159 10.5588 0.468073 11.7834L0.458652 11.8512C0.239772 13.4271 0.068665 14.6591 0.0166947 15.6514C-0.0360719 16.6589 0.0277607 17.4985 0.33085 18.2693C0.826231 19.5292 1.7409 20.5797 2.92063 21.2437C3.64242 21.6499 4.46526 21.8286 5.47046 21.915C6.46049 22 7.70426 22 9.29527 22H11.0308C12.6219 22 13.8656 22 14.8557 21.915C15.8609 21.8286 16.6837 21.6499 17.4055 21.2437C18.5852 20.5797 19.4999 19.5292 19.9953 18.2693C20.2984 17.4985 20.3622 16.6589 20.3094 15.6514C20.2574 14.659 20.0863 13.4271 19.8674 11.8511L19.858 11.7834C19.688 10.5587 19.5543 9.59614 19.386 8.82402C19.2143 8.03593 18.9957 7.3899 18.6273 6.81239C18.0186 5.85823 17.1476 5.09988 16.1188 4.62824C15.7628 4.46504 15.3916 4.3535 14.9888 4.27634C14.7002 1.86739 12.6497 0 10.1631 0ZM9.28572 4.09302C8.36267 4.09302 7.5857 4.09301 6.92045 4.11895C7.25743 2.63922 8.58128 1.53488 10.1631 1.53488C11.7448 1.53488 13.0687 2.63922 13.4057 4.11895C12.7404 4.09301 11.9634 4.09302 11.0404 4.09302H9.28572ZM6.07009 7.16279C5.64624 7.16279 5.30264 7.50639 5.30264 7.93023C5.30264 8.35408 5.64624 8.69767 6.07009 8.69767H14.2561C14.68 8.69767 15.0236 8.35408 15.0236 7.93023C15.0236 7.50639 14.68 7.16279 14.2561 7.16279H6.07009Z" fill="#02957D"/>
</svg>
