<svg width="16" height="13" viewBox="0 0 16 13" fill="none" xmlns="http://www.w3.org/2000/svg">
<path d="M2.35986 9.16269V11.5922C2.35986 12.321 2.94988 12.9111 3.67874 12.9111C4.40759 12.9111 4.99761 12.321 4.99761 11.5922V9.16269H2.35986Z" fill="#02957D"/>
<path d="M1.56182 2.32558C0.694143 2.32558 0 3.01972 0 3.85269V6.90692C0 7.7399 0.694143 8.43404 1.56182 8.43404H5.41432V2.32558H1.56182ZM4.19957 6.69868H2.04772C1.83948 6.69868 1.70065 6.52515 1.70065 6.35161C1.70065 6.17807 1.83948 6.00454 2.04772 6.00454H4.19957C4.3731 6.00454 4.54664 6.17807 4.54664 6.35161C4.54664 6.52515 4.40781 6.69868 4.19957 6.69868ZM4.19957 4.78979H2.04772C1.83948 4.78979 1.70065 4.65096 1.70065 4.44272C1.70065 4.26918 1.83948 4.09564 2.04772 4.09564H4.19957C4.3731 4.09564 4.54664 4.26918 4.54664 4.44272C4.54664 4.65096 4.40781 4.78979 4.19957 4.78979ZM9.99546 1.59673C8.95425 2.08263 7.80891 2.32558 6.66358 2.32558H6.14297V8.46895H6.66358C7.80891 8.46895 8.95425 8.7119 9.99546 9.1978L10.6896 9.51016V1.28436L9.99546 1.59673Z" fill="#02957D"/>
<path d="M13.3269 0.347072C13.1187 0.138829 12.8063 0 12.5286 0C11.9733 0 11.4874 0.416486 11.3833 0.937093V1.14534V9.64879V9.85703C11.4874 10.4123 11.9386 10.7941 12.5286 10.7941C13.1534 10.7941 13.674 10.2735 13.674 9.64879V1.14534C13.6393 0.867679 13.5351 0.555315 13.3269 0.347072Z" fill="#02957D"/>
<path d="M14.3343 3.43621V7.39282C15.3061 7.21929 16.0002 6.38632 16.0002 5.41452C16.0002 4.44271 15.3061 3.60974 14.3343 3.43621ZM13.6401 7.08046V7.11517V3.71386V3.74857V7.08046Z" fill="#02957D"/>
</svg>
