<svg width="206" height="200" viewBox="0 0 206 200" fill="none" xmlns="http://www.w3.org/2000/svg">
<path d="M130.909 44.8328H119.989V137.938C119.989 139.398 119.701 140.845 119.142 142.194C118.583 143.544 117.764 144.77 116.731 145.803C115.698 146.836 114.471 147.655 113.122 148.215C111.772 148.774 110.326 149.061 108.865 149.061H25.3721V149.168C25.3721 150.628 25.6598 152.075 26.2188 153.425C26.7778 154.774 27.5972 156 28.6301 157.033C29.663 158.066 30.8893 158.886 32.2389 159.445C33.5885 160.004 35.035 160.291 36.4958 160.291H130.909C132.37 160.291 133.817 160.004 135.166 159.445C136.516 158.886 137.742 158.066 138.775 157.033C139.808 156 140.627 154.774 141.186 153.425C141.745 152.075 142.033 150.628 142.033 149.168V55.9565C142.033 53.0063 140.861 50.1769 138.775 48.0908C136.689 46.0047 133.86 44.8328 130.909 44.8328Z" fill="#F2F2F2"/>
<path d="M182.678 192.791C182.872 192.8 183.063 192.749 183.226 192.645C183.39 192.542 183.518 192.39 183.592 192.212C183.667 192.033 183.685 191.836 183.644 191.647C183.603 191.458 183.504 191.286 183.362 191.155L183.298 190.898C183.306 190.877 183.315 190.856 183.323 190.836C183.518 190.376 183.844 189.984 184.261 189.708C184.678 189.433 185.167 189.287 185.667 189.289C186.166 189.291 186.654 189.441 187.069 189.719C187.484 189.997 187.808 190.392 187.999 190.853C188.764 192.695 189.737 194.54 189.977 196.487C190.083 197.348 190.038 198.221 189.845 199.066C191.642 195.148 192.574 190.89 192.58 186.58C192.581 185.498 192.52 184.418 192.4 183.343C192.301 182.461 192.163 181.587 191.986 180.718C191.024 176.005 188.957 171.587 185.955 167.828C184.503 167.036 183.328 165.817 182.589 164.336C182.322 163.804 182.133 163.235 182.028 162.649C182.192 162.67 182.646 160.175 182.522 160.022C182.751 159.675 183.159 159.503 183.409 159.165C184.649 157.483 186.358 157.776 187.25 160.062C189.156 161.024 189.175 162.619 188.005 164.153C187.261 165.129 187.159 166.45 186.506 167.495C186.573 167.581 186.643 167.665 186.71 167.75C187.938 169.329 189.008 171.024 189.905 172.812C189.687 170.809 189.947 168.784 190.665 166.902C191.392 165.147 192.755 163.67 193.955 162.154C194.272 161.746 194.703 161.442 195.194 161.28C195.684 161.117 196.211 161.104 196.709 161.241C197.207 161.379 197.653 161.66 197.991 162.051C198.329 162.442 198.543 162.924 198.607 163.436C198.609 163.459 198.612 163.481 198.614 163.503C198.436 163.604 198.261 163.711 198.09 163.823C197.876 163.967 197.71 164.172 197.614 164.411C197.517 164.65 197.496 164.913 197.552 165.165C197.607 165.417 197.738 165.646 197.926 165.822C198.115 165.999 198.352 166.114 198.607 166.153L198.633 166.157C198.569 166.8 198.457 167.437 198.297 168.062C199.837 174.017 196.513 176.185 191.766 176.283C191.661 176.336 191.559 176.39 191.455 176.441C192.356 178.995 192.921 181.656 193.136 184.355C193.258 185.948 193.251 187.548 193.115 189.14L193.123 189.084C193.467 187.314 194.411 185.717 195.796 184.562C197.853 182.873 200.759 182.25 202.978 180.892C203.214 180.741 203.488 180.66 203.769 180.659C204.049 180.658 204.324 180.738 204.56 180.888C204.797 181.038 204.985 181.253 205.104 181.507C205.222 181.761 205.266 182.044 205.229 182.322L205.22 182.381C204.889 182.516 204.567 182.671 204.255 182.846C204.077 182.946 203.903 183.053 203.732 183.166C203.517 183.309 203.351 183.514 203.255 183.753C203.159 183.993 203.137 184.256 203.193 184.507C203.249 184.759 203.38 184.988 203.568 185.165C203.756 185.341 203.993 185.457 204.248 185.496L204.274 185.5C204.293 185.503 204.309 185.505 204.328 185.508C203.763 186.858 202.969 188.1 201.983 189.18C201.02 194.378 196.885 194.871 192.462 193.358H192.459C191.974 195.467 191.271 197.519 190.361 199.483H182.866C182.839 199.4 182.815 199.314 182.791 199.23C183.485 199.274 184.181 199.232 184.865 199.107C184.309 198.424 183.753 197.737 183.196 197.054C183.184 197.042 183.172 197.028 183.161 197.014C182.879 196.665 182.595 196.318 182.313 195.969L182.312 195.969C182.297 194.898 182.42 193.83 182.678 192.791L182.678 192.791Z" fill="#F2F2F2"/>
<path d="M100.125 32.168C100.399 32.5826 100.759 32.9328 101.181 33.1943C101.604 33.4559 102.078 33.6227 102.571 33.683C103.064 33.7434 103.564 33.6959 104.037 33.5439C104.51 33.3919 104.944 33.1389 105.31 32.8026L120.893 39.833L123.897 36.0009L105.328 27.7861C104.716 27.2129 103.915 26.884 103.077 26.8619C102.239 26.8398 101.422 27.1259 100.78 27.666C100.139 28.2061 99.718 28.9627 99.5972 29.7925C99.4765 30.6222 99.6643 31.4674 100.125 32.168H100.125Z" fill="#FFB7B7"/>
<path d="M167 36.5518L168.546 45.3098C168.618 45.7183 168.604 46.1375 168.504 46.5403C168.405 46.9431 168.222 47.3207 167.968 47.6487C167.714 47.9768 167.394 48.2481 167.029 48.4453C166.664 48.6425 166.262 48.7611 165.848 48.7936L139.587 50.8588L108.718 37.0434L112.405 30.0444L139.202 38.5303L167 36.5518Z" fill="#02957D"/>
<path d="M105.537 30.2751H11.1237C4.98026 30.2751 0 35.2554 0 41.3989V134.61C0 140.754 4.98026 145.734 11.1237 145.734H105.537C111.681 145.734 116.661 140.754 116.661 134.61V41.3989C116.661 35.2554 111.681 30.2751 105.537 30.2751Z" fill="#F2F2F2"/>
<path d="M11.1237 32.5627C9.96333 32.5627 8.81432 32.7913 7.74227 33.2353C6.67022 33.6794 5.69614 34.3303 4.87563 35.1508C4.05512 35.9713 3.40426 36.9454 2.9602 38.0174C2.51614 39.0895 2.2876 40.2385 2.2876 41.3989V134.61C2.2876 136.954 3.21854 139.201 4.87563 140.858C6.53272 142.515 8.78023 143.446 11.1237 143.446H71.3808C77.0266 143.446 82.6172 142.334 87.8333 140.174C93.0494 138.013 97.7888 134.846 101.781 130.854C105.773 126.862 108.94 122.122 111.101 116.906C113.261 111.69 114.373 106.1 114.373 100.454V41.3989C114.373 40.2385 114.145 39.0895 113.701 38.0174C113.257 36.9454 112.606 35.9713 111.785 35.1508C110.965 34.3303 109.991 33.6794 108.919 33.2353C107.847 32.7913 106.698 32.5627 105.537 32.5627H11.1237Z" fill="white"/>
<path d="M84.7233 60.8508H31.7309C31.2446 60.8508 30.7783 60.6577 30.4345 60.3138C30.0906 59.97 29.8975 59.5037 29.8975 59.0174C29.8975 58.5311 30.0906 58.0648 30.4345 57.721C30.7783 57.3771 31.2446 57.184 31.7309 57.184H84.7233C85.2095 57.184 85.6758 57.3771 86.0197 57.721C86.3635 58.0648 86.5567 58.5311 86.5567 59.0174C86.5567 59.5037 86.3635 59.97 86.0197 60.3138C85.6758 60.6577 85.2095 60.8508 84.7233 60.8508Z" fill="#F2F2F2"/>
<path d="M84.7233 99.9484H31.7309C31.2446 99.9484 30.7783 99.7552 30.4345 99.4114C30.0906 99.0675 29.8975 98.6012 29.8975 98.1149C29.8975 97.6287 30.0906 97.1623 30.4345 96.8185C30.7783 96.4747 31.2446 96.2815 31.7309 96.2815H84.7233C85.2095 96.2815 85.6758 96.4747 86.0197 96.8185C86.3635 97.1623 86.5567 97.6287 86.5567 98.1149C86.5567 98.6012 86.3635 99.0675 86.0197 99.4114C85.6758 99.7552 85.2095 99.9484 84.7233 99.9484Z" fill="#F2F2F2"/>
<path d="M106.242 80.4124H10.2119C9.72559 80.4124 9.25925 80.2192 8.91542 79.8754C8.57158 79.5315 8.37842 79.0652 8.37842 78.5789C8.37842 78.0927 8.57158 77.6263 8.91542 77.2825C9.25925 76.9386 9.72559 76.7455 10.2119 76.7455H106.242C106.729 76.7455 107.195 76.9386 107.539 77.2825C107.883 77.6263 108.076 78.0927 108.076 78.5789C108.076 79.0652 107.883 79.5315 107.539 79.8754C107.195 80.2192 106.729 80.4124 106.242 80.4124Z" fill="#F2F2F2"/>
<path d="M163.682 75.1535L154.116 95.5341L190.916 91.8069L183.234 72.2419L163.682 75.1535Z" fill="#FFB7B7"/>
<path d="M172.238 192.294L168.748 192.264L167.204 178.492L172.353 178.536L172.238 192.294Z" fill="#FFB7B7"/>
<path d="M161.062 197.842C161.058 198.255 161.22 198.653 161.509 198.948C161.799 199.243 162.195 199.411 162.608 199.415L169.545 199.473L170.76 197.011L171.206 199.486L173.823 199.509L173.162 190.685L172.252 190.624L168.537 190.368L167.339 190.288L167.318 192.785L161.745 196.564C161.536 196.706 161.365 196.896 161.246 197.119C161.127 197.341 161.064 197.589 161.062 197.842Z" fill="#102339"/>
<path d="M133.624 192.309L130.298 191.256L132.868 177.638L137.778 179.193L133.624 192.309Z" fill="#FFB7B7"/>
<path d="M121.312 194.329C121.187 194.723 121.224 195.151 121.415 195.518C121.605 195.885 121.934 196.162 122.328 196.288L128.942 198.381L130.826 196.385L130.525 198.881L133.02 199.673L134.981 191.043L134.129 190.718L130.653 189.382L129.531 188.953L128.778 191.333L122.34 193.309C122.099 193.383 121.88 193.515 121.7 193.692C121.521 193.87 121.388 194.088 121.312 194.329Z" fill="#102339"/>
<path d="M189.24 86.0756L155.78 92.2067C155.78 92.2067 150.413 96.2213 151.848 97.659C153.284 99.0967 153.507 98.874 152.563 99.8173C151.62 100.76 149.581 102.021 149.561 102.847C149.541 103.672 134.567 140.69 134.567 140.69C134.567 140.69 136.231 139.858 134.983 141.106C133.735 142.354 133.735 143.385 133.735 143.385L127.912 182.699L137.369 183.256L146.629 147.414L167.284 113.929C167.284 113.929 169.333 143.789 169.419 145.775C169.505 147.761 170.753 145.265 169.505 147.761C168.257 150.256 167.426 148.593 168.257 150.256C169.089 151.92 165.261 185.791 165.261 185.791H173.893L192.406 115.586C192.406 115.586 198.992 95.5147 189.24 86.0756Z" fill="#102339"/>
<path d="M179.383 29.9198L165.98 28.5271L162.507 33.0355L158.462 35.1901C156.75 36.1019 155.337 37.4875 154.391 39.1813C153.446 40.875 153.009 42.8052 153.132 44.7409L157.859 72.2419C157.859 72.2419 153.866 81.234 156.611 83.4721C159.357 85.7101 154.489 91.253 160.355 88.4632C166.221 85.6735 191.55 88.8792 191.55 88.8792L186.143 73.4897L190.182 58.3674L190.626 45.6876C190.709 43.3182 190.006 40.9879 188.627 39.0598C187.247 37.1318 185.268 35.7144 182.998 35.0286L182.434 34.8579L179.383 29.9198Z" fill="#02957D"/>
<path d="M197.835 19.6446C197.923 23.4225 196.511 27.0806 194.483 30.2937C193.88 28.4179 192.797 26.7107 191.667 25.0833C192.237 28.6039 191.63 32.214 189.941 35.355C189.881 35.3976 189.82 35.4371 189.756 35.4735C188.103 36.468 186.007 36.8708 184.218 36.1525C187.914 32.1693 188.384 25.5696 185.286 21.1018C184.409 19.834 183.274 18.7128 182.731 17.27C181.873 14.968 182.698 12.4335 183.218 10.0334C183.704 7.79971 183.79 5.14156 182.291 3.50452C182.451 3.27574 182.669 3.09364 182.923 2.97686C183.176 2.86009 183.456 2.81285 183.734 2.83997C184.658 2.97048 185.331 3.77359 185.759 4.60074C186.188 5.42787 186.47 6.3446 187.067 7.05904C188.173 8.39626 190.055 8.71241 191.642 9.41715C195.484 11.1285 197.743 15.4408 197.835 19.6446Z" fill="#102339"/>
<path d="M98.8467 199.505C98.8465 199.57 98.8591 199.634 98.8839 199.695C98.9088 199.755 98.9452 199.809 98.9912 199.855C99.0372 199.901 99.0919 199.938 99.152 199.963C99.2121 199.987 99.2766 200 99.3417 200H204.693C204.824 200 204.95 199.948 205.043 199.855C205.136 199.762 205.188 199.636 205.188 199.505C205.188 199.374 205.136 199.248 205.043 199.155C204.95 199.062 204.824 199.01 204.693 199.01H99.3417C99.2766 199.01 99.2121 199.022 99.152 199.047C99.0919 199.072 99.0372 199.109 98.9912 199.155C98.9452 199.201 98.9088 199.255 98.884 199.315C98.8592 199.375 98.8465 199.44 98.8467 199.505Z" fill="#CCCCCC"/>
<path d="M198.665 107.206C200.733 107.206 202.409 105.53 202.409 103.462C202.409 101.395 200.733 99.7188 198.665 99.7188C196.598 99.7188 194.922 101.395 194.922 103.462C194.922 105.53 196.598 107.206 198.665 107.206Z" fill="#02957D"/>
<path d="M165.494 17.4845C165.713 16.716 164.2 21.4135 164.93 21.4983C168.256 21.8799 172.822 23.8663 175.139 24.793C175.243 24.7809 175.347 24.7688 175.448 24.7536C175.697 24.7264 175.939 24.687 176.179 24.6416C181.573 23.621 183.647 15.335 183.647 15.2593C183.647 14.8869 182.753 4.65601 181.345 4.50461C180.975 4.46447 180.603 4.44425 180.231 4.44403H176.736C176.013 4.2882 175.28 4.18196 174.542 4.12605H174.536C167.501 3.59001 161.953 7.87827 162.472 13.0963C162.475 13.1023 162.481 13.1084 162.484 13.1145C162.634 13.3386 162.766 13.5506 162.883 13.7535C162.996 13.9443 163.091 14.1259 163.174 14.2986C163.816 15.6311 162.167 17.3078 163.26 17.6208C164.714 18.037 159.437 31.7182 165.191 31.7182C162.392 32.5139 164.888 19.6044 165.494 17.4845Z" fill="#102339"/>
<path d="M171.774 25.512C176.344 25.512 180.049 21.8074 180.049 17.2376C180.049 12.6678 176.344 8.96326 171.774 8.96326C167.205 8.96326 163.5 12.6678 163.5 17.2376C163.5 21.8074 167.205 25.512 171.774 25.512Z" fill="#FFB7B7"/>
<path d="M162.472 13.5475C162.61 13.6202 162.745 13.6868 162.883 13.7534C163.027 13.8231 163.171 13.8927 163.315 13.9563C166.086 15.2131 168.341 15.3524 169.71 13.5475C169.746 12.5978 169.96 11.6632 170.339 10.7916C170.272 11.7656 170.529 12.7344 171.069 13.5475H173.824C176.663 15.4312 178.12 15.628 176.15 21.8121C175.601 23.5353 173.417 33.5625 174.276 35.0494C174.525 35.0222 177.169 24.0393 177.408 23.9939C182.802 22.9733 186.23 14.0866 185.791 13.5838C185.793 12.1542 185.464 10.7435 184.83 9.46213C184.028 7.83866 182.778 6.47879 181.228 5.54333C180.304 5.09525 179.341 4.73333 178.35 4.46217C178.326 4.45611 178.304 4.45004 178.28 4.444C177.976 4.36222 177.666 4.28652 177.356 4.22292C176.716 4.08773 176.068 3.98965 175.417 3.92916C175.371 3.92613 175.325 3.9231 175.282 3.9231C175.022 3.9237 174.766 3.99376 174.542 4.12602C174.539 4.12602 174.539 4.12903 174.536 4.12903C174.376 4.22258 174.236 4.34716 174.125 4.49547C173.929 4.745 173.823 5.0534 173.824 5.37069H170.756C170.643 5.37069 170.529 5.37371 170.416 5.37976C168.368 5.44975 166.42 6.28139 164.953 7.71195C163.486 9.14251 162.605 11.069 162.484 13.1144C162.475 13.2598 162.472 13.4021 162.472 13.5475Z" fill="#102339"/>
<path d="M180.563 10.9024C183.574 10.9024 186.014 8.46181 186.014 5.4512C186.014 2.44058 183.574 0 180.563 0C177.552 0 175.112 2.44058 175.112 5.4512C175.112 8.46181 177.552 10.9024 180.563 10.9024Z" fill="#102339"/>
<path d="M198.707 105.006C198.973 104.586 199.145 104.114 199.211 103.621C199.276 103.129 199.234 102.628 199.087 102.154C198.94 101.679 198.692 101.242 198.359 100.873C198.027 100.504 197.618 100.212 197.161 100.016L197.188 82.9208L192.462 81.7507L192.578 102.055C192.306 102.848 192.334 103.714 192.657 104.488C192.981 105.261 193.577 105.889 194.332 106.253C195.088 106.617 195.95 106.691 196.757 106.461C197.563 106.231 198.257 105.713 198.707 105.006V105.006Z" fill="#FFB7B7"/>
<path d="M175.3 42.2075L182.655 37.2087C182.998 36.9755 183.387 36.8166 183.795 36.7423C184.203 36.6679 184.622 36.6797 185.025 36.777C185.429 36.8742 185.807 37.0547 186.137 37.3069C186.466 37.5591 186.739 37.8774 186.939 38.2414L199.584 61.35L199.633 95.1695L191.738 94.6747L188.496 66.7534L175.3 42.2075Z" fill="#02957D"/>
<path d="M118.809 118.906H40.1979C38.4881 118.906 36.8483 119.585 35.6392 120.794C34.4302 122.003 33.751 123.643 33.751 125.352C33.751 127.062 34.4302 128.702 35.6392 129.911C36.8483 131.12 38.4881 131.799 40.1979 131.799H118.809C120.519 131.799 122.159 131.12 123.368 129.911C124.577 128.702 125.256 127.062 125.256 125.352C125.256 123.643 124.577 122.003 123.368 120.794C122.159 119.585 120.519 118.906 118.809 118.906Z" fill="white"/>
<path d="M118.809 132.215H40.1978C38.3777 132.215 36.6321 131.492 35.345 130.205C34.058 128.918 33.335 127.173 33.335 125.352C33.335 123.532 34.058 121.787 35.345 120.5C36.6321 119.213 38.3777 118.49 40.1978 118.49H118.809C120.629 118.49 122.375 119.213 123.662 120.5C124.949 121.787 125.672 123.532 125.672 125.352C125.672 127.173 124.949 128.918 123.662 130.205C122.375 131.492 120.629 132.215 118.809 132.215ZM40.1978 119.321C38.5983 119.321 37.0643 119.957 35.9333 121.088C34.8022 122.219 34.1668 123.753 34.1668 125.352C34.1668 126.952 34.8022 128.486 35.9333 129.617C37.0643 130.748 38.5983 131.383 40.1978 131.383H118.809C120.408 131.383 121.942 130.748 123.073 129.617C124.205 128.486 124.84 126.952 124.84 125.352C124.84 123.753 124.205 122.219 123.073 121.088C121.942 119.957 120.408 119.321 118.809 119.321H40.1978Z" fill="#02957D"/>
<path d="M123.445 147.04H88.7534C88.2671 147.04 87.8008 146.847 87.4569 146.503C87.1131 146.159 86.9199 145.693 86.9199 145.207C86.9199 144.721 87.1131 144.254 87.4569 143.91C87.8008 143.567 88.2671 143.373 88.7534 143.373H123.445C123.931 143.373 124.397 143.567 124.741 143.91C125.085 144.254 125.278 144.721 125.278 145.207C125.278 145.693 125.085 146.159 124.741 146.503C124.397 146.847 123.931 147.04 123.445 147.04Z" fill="#02957D"/>
</svg>
