
<svg width="15" height="16" viewBox="0 0 15 16" fill="none" xmlns="http://www.w3.org/2000/svg">
<path d="M6.72594 1.63642C8.09562 1.20455 8.78045 0.988614 9.37716 1.00046C10.6248 1.02524 11.7727 1.68794 12.418 2.75606C12.7266 3.2669 12.882 3.96796 13.1928 5.37007C13.3135 5.91462 13.3739 6.18689 13.3927 6.45637C13.4318 7.01421 13.3417 7.57354 13.1294 8.09089C13.0269 8.34081 12.884 8.58035 12.5984 9.05943L10.8104 12.0584C10.162 13.1458 9.83783 13.6895 9.43823 14.0531C8.55391 14.8577 7.33062 15.1763 6.16616 14.9053C5.63998 14.7828 5.09177 14.4663 3.99533 13.8333C2.8989 13.2002 2.35068 12.8837 1.98153 12.4893C1.16459 11.6163 0.82886 10.3976 1.08351 9.22949C1.19857 8.70164 1.50736 8.14904 2.12493 7.04383L3.82807 3.99587C4.10014 3.50896 4.23618 3.26551 4.40134 3.05175C4.74324 2.60924 5.18258 2.25153 5.68521 2.00642C5.92801 1.88802 6.19399 1.80415 6.72594 1.63642Z" stroke="white" stroke-width="1.2"/>
<path d="M7.43123 5.03254C7.06468 5.66742 7.28221 6.47925 7.91709 6.8458C8.55197 7.21235 9.3638 6.99482 9.73035 6.35994C10.0969 5.72505 9.87937 4.91323 9.24449 4.54668C8.6096 4.18013 7.79778 4.39766 7.43123 5.03254Z" stroke="white" stroke-width="1.2"/>
</svg>
