<svg width="335" height="60" viewBox="0 0 335 60" fill="none" xmlns="http://www.w3.org/2000/svg">
<rect opacity="0.1" x="0.5" y="0.5" width="334" height="59" rx="9.5" fill="white" stroke="#111827" stroke-dasharray="6 6"/>
<rect opacity="0.05" x="5" y="5" width="325" height="50" rx="10" fill="#111827"/>
<path opacity="0.5" d="M48.76 33.12C50.54 33.12 51.79 31.86 51.79 30.07V26.13H50.55V30.03C50.55 31.17 49.81 31.99 48.76 31.99C47.72 31.99 46.98 31.17 46.98 30.03V26.13H45.73V30.07C45.73 31.86 46.99 33.12 48.76 33.12ZM56.2395 27.71C55.4695 27.71 54.8495 28.06 54.4395 28.65V27.83H53.2195V34.72H54.4395V32.18C54.8495 32.77 55.4695 33.12 56.2395 33.12C57.6095 33.12 58.6095 32 58.6095 30.41C58.6095 28.83 57.6095 27.71 56.2395 27.71ZM55.9095 32.08C55.0495 32.08 54.4495 31.38 54.4495 30.41C54.4495 29.44 55.0495 28.75 55.9095 28.75C56.7795 28.75 57.3995 29.44 57.3995 30.41C57.3995 31.38 56.7795 32.08 55.9095 32.08ZM59.713 33H60.933V26.01H59.713V33ZM64.7813 33.12C66.2813 33.12 67.5513 31.88 67.5513 30.41C67.5513 28.94 66.2813 27.71 64.7813 27.71C63.2813 27.71 62.0113 28.94 62.0113 30.41C62.0113 31.88 63.2813 33.12 64.7813 33.12ZM64.7813 32.08C63.9213 32.08 63.2013 31.32 63.2013 30.41C63.2013 29.51 63.9213 28.75 64.7813 28.75C65.6313 28.75 66.3513 29.51 66.3513 30.41C66.3513 31.32 65.6313 32.08 64.7813 32.08ZM70.8595 27.71C70.2095 27.71 69.5295 27.89 68.7995 28.25L69.2195 29.1C69.6595 28.88 70.1295 28.71 70.6195 28.71C71.5595 28.71 71.8895 29.29 71.8895 29.89V30.03C71.4195 29.85 70.9095 29.75 70.4395 29.75C69.2795 29.75 68.3295 30.45 68.3295 31.47C68.3295 32.47 69.1595 33.12 70.2595 33.12C70.8595 33.12 71.5095 32.86 71.8895 32.38V33H73.0795V29.89C73.0795 28.58 72.2295 27.71 70.8595 27.71ZM70.5295 32.23C69.9495 32.23 69.5195 31.92 69.5195 31.43C69.5195 30.94 70.0095 30.6 70.6195 30.6C71.0795 30.6 71.5095 30.67 71.8895 30.8V31.38C71.7495 31.93 71.1195 32.23 70.5295 32.23ZM78.3305 26.01V28.63C77.9205 28.05 77.3005 27.71 76.5405 27.71C75.1705 27.71 74.1705 28.83 74.1705 30.41C74.1705 32 75.1705 33.12 76.5405 33.12C77.3005 33.12 77.9205 32.78 78.3305 32.2V33H79.5505V26.01H78.3305ZM76.8705 32.08C76.0005 32.08 75.3805 31.38 75.3805 30.41C75.3805 29.44 76.0005 28.75 76.8705 28.75C77.7305 28.75 78.3305 29.44 78.3305 30.41C78.3305 31.38 77.7305 32.08 76.8705 32.08ZM84.8059 34.8C85.5859 34.79 86.1859 34.34 86.5759 33.36L88.7659 27.83H87.5059L86.0859 31.69L84.5759 27.83H83.2859L85.4759 33.04L85.2559 33.5C85.1059 33.75 84.8859 33.84 84.5959 33.84C84.4059 33.84 84.1559 33.77 83.9359 33.65L83.6759 34.53C83.9859 34.7 84.4159 34.8 84.8059 34.8ZM91.9981 33.12C93.4981 33.12 94.7681 31.88 94.7681 30.41C94.7681 28.94 93.4981 27.71 91.9981 27.71C90.4981 27.71 89.2281 28.94 89.2281 30.41C89.2281 31.88 90.4981 33.12 91.9981 33.12ZM91.9981 32.08C91.1381 32.08 90.4181 31.32 90.4181 30.41C90.4181 29.51 91.1381 28.75 91.9981 28.75C92.8481 28.75 93.5681 29.51 93.5681 30.41C93.5681 31.32 92.8481 32.08 91.9981 32.08ZM99.3263 27.83V31.1C99.2463 31.65 98.7163 32.08 98.0763 32.08C97.4363 32.08 96.9863 31.58 96.9863 30.88V27.83H95.8063V31.12C95.8063 32.29 96.5963 33.12 97.7262 33.12C98.4063 33.12 99.0063 32.79 99.3263 32.31V33H100.546V27.83H99.3263ZM103.141 28.83V27.83H101.921V33H103.141V30.39C103.141 29.41 103.881 28.75 104.991 28.75V27.71C104.141 27.71 103.471 28.14 103.141 28.83ZM114.387 33L112.667 30.56C113.657 30.25 114.327 29.45 114.327 28.41C114.327 27.07 113.227 26.13 111.757 26.13H108.767V33H110.017V30.69H111.347L112.967 33H114.387ZM110.017 27.28H111.617C112.467 27.28 113.057 27.71 113.057 28.41C113.057 29.11 112.467 29.54 111.617 29.54H110.017V27.28ZM117.826 32.04C117.086 32.04 116.546 31.54 116.396 30.83H120.296C120.296 28.92 119.366 27.71 117.766 27.71C116.296 27.71 115.136 28.85 115.136 30.4C115.136 31.99 116.356 33.12 117.836 33.12C118.586 33.12 119.486 32.8 119.936 32.32L119.166 31.52C118.876 31.82 118.306 32.04 117.826 32.04ZM117.816 28.79C118.546 28.79 118.986 29.25 119.126 29.9H116.406C116.586 29.22 117.136 28.79 117.816 28.79ZM123.264 33.12C124.474 33.12 125.294 32.48 125.294 31.49C125.294 30.41 124.354 30.11 123.484 29.87C122.694 29.64 122.424 29.54 122.424 29.21C122.424 28.92 122.754 28.75 123.184 28.75C123.634 28.75 124.164 28.91 124.654 29.22L125.164 28.33C124.604 27.96 123.894 27.71 123.184 27.71C122.034 27.71 121.234 28.37 121.234 29.34C121.244 30.26 121.954 30.58 123.074 30.87C123.664 31.03 124.114 31.16 124.114 31.56C124.114 31.88 123.774 32.09 123.284 32.09C122.634 32.09 122.054 31.85 121.554 31.49L121.004 32.34C121.624 32.84 122.474 33.12 123.264 33.12ZM129.854 27.83V31.1C129.774 31.65 129.244 32.08 128.604 32.08C127.964 32.08 127.514 31.58 127.514 30.88V27.83H126.334V31.12C126.334 32.29 127.124 33.12 128.254 33.12C128.934 33.12 129.534 32.79 129.854 32.31V33H131.074V27.83H129.854ZM138.388 27.71C137.618 27.71 136.968 28.09 136.718 28.69C136.398 28.08 135.798 27.71 135.068 27.71C134.418 27.71 133.888 28.03 133.628 28.53V27.83H132.408V33H133.628V29.83C133.628 29.2 134.098 28.75 134.758 28.75C135.358 28.75 135.768 29.23 135.768 29.91V33H136.958V29.83C136.958 29.2 137.418 28.75 138.088 28.75C138.678 28.75 139.088 29.23 139.088 29.91V33H140.278V29.71C140.278 28.54 139.468 27.71 138.388 27.71ZM144.008 32.04C143.268 32.04 142.728 31.54 142.578 30.83H146.478C146.478 28.92 145.548 27.71 143.948 27.71C142.478 27.71 141.318 28.85 141.318 30.4C141.318 31.99 142.538 33.12 144.018 33.12C144.768 33.12 145.668 32.8 146.118 32.32L145.348 31.52C145.058 31.82 144.488 32.04 144.008 32.04ZM143.998 28.79C144.728 28.79 145.168 29.25 145.308 29.9H142.588C142.768 29.22 143.318 28.79 143.998 28.79ZM146.655 33.74H147.965L151.425 25.57H150.115L146.655 33.74ZM152.128 33H154.548C156.818 33 158.418 31.57 158.418 29.56C158.418 27.55 156.818 26.13 154.548 26.13H152.128V33ZM153.378 31.87V27.26H154.678C156.128 27.26 157.148 28.21 157.148 29.56C157.148 30.91 156.128 31.87 154.678 31.87H153.378ZM162.106 33.12C163.606 33.12 164.876 31.88 164.876 30.41C164.876 28.94 163.606 27.71 162.106 27.71C160.606 27.71 159.336 28.94 159.336 30.41C159.336 31.88 160.606 33.12 162.106 33.12ZM162.106 32.08C161.246 32.08 160.526 31.32 160.526 30.41C160.526 29.51 161.246 28.75 162.106 28.75C162.956 28.75 163.676 29.51 163.676 30.41C163.676 31.32 162.956 32.08 162.106 32.08ZM168.424 33.12C169.244 33.12 169.934 32.78 170.434 32.25L169.614 31.54C169.324 31.87 168.884 32.08 168.434 32.08C167.584 32.08 166.874 31.32 166.874 30.41C166.874 29.51 167.584 28.75 168.434 28.75C168.874 28.75 169.304 28.96 169.584 29.27L170.404 28.55C169.914 28.04 169.224 27.71 168.444 27.71C166.934 27.71 165.664 28.94 165.664 30.41C165.664 31.88 166.934 33.12 168.424 33.12ZM174.893 27.83V31.1C174.813 31.65 174.283 32.08 173.643 32.08C173.003 32.08 172.553 31.58 172.553 30.88V27.83H171.373V31.12C171.373 32.29 172.163 33.12 173.293 33.12C173.973 33.12 174.573 32.79 174.893 32.31V33H176.113V27.83H174.893ZM183.427 27.71C182.657 27.71 182.007 28.09 181.757 28.69C181.437 28.08 180.837 27.71 180.107 27.71C179.457 27.71 178.927 28.03 178.667 28.53V27.83H177.447V33H178.667V29.83C178.667 29.2 179.137 28.75 179.797 28.75C180.397 28.75 180.807 29.23 180.807 29.91V33H181.997V29.83C181.997 29.2 182.457 28.75 183.127 28.75C183.717 28.75 184.127 29.23 184.127 29.91V33H185.317V29.71C185.317 28.54 184.507 27.71 183.427 27.71ZM189.047 32.04C188.307 32.04 187.767 31.54 187.617 30.83H191.517C191.517 28.92 190.587 27.71 188.987 27.71C187.517 27.71 186.357 28.85 186.357 30.4C186.357 31.99 187.577 33.12 189.057 33.12C189.807 33.12 190.707 32.8 191.157 32.32L190.387 31.52C190.097 31.82 189.527 32.04 189.047 32.04ZM189.037 28.79C189.767 28.79 190.207 29.25 190.347 29.9H187.627C187.807 29.22 188.357 28.79 189.037 28.79ZM195.394 27.71C194.714 27.71 194.114 28.04 193.794 28.52V27.83H192.574V33H193.794V29.73C193.874 29.18 194.404 28.75 195.044 28.75C195.684 28.75 196.134 29.25 196.134 29.95V33H197.314V29.71C197.314 28.54 196.524 27.71 195.394 27.71ZM201.219 31.89C201.109 32 200.919 32.08 200.709 32.08C200.419 32.08 200.199 31.83 200.199 31.48V28.84H201.369V27.83H200.199V26.41H199.009V27.83H198.259V28.84H199.009V31.63C199.009 32.5 199.609 33.12 200.469 33.12C200.859 33.12 201.279 32.96 201.569 32.71L201.219 31.89ZM207.408 34.7L208.038 34.03C206.988 32.95 206.458 31.86 206.458 30.35C206.458 28.83 206.988 27.74 208.038 26.66L207.408 26C206.028 27.06 205.218 28.58 205.218 30.35C205.218 32.11 206.028 33.64 207.408 34.7ZM209.838 33.12C210.258 33.12 210.608 32.76 210.608 32.32C210.608 31.91 210.258 31.55 209.838 31.55C209.378 31.55 209.038 31.91 209.038 32.32C209.038 32.76 209.378 33.12 209.838 33.12ZM214.921 27.71C214.151 27.71 213.531 28.06 213.121 28.65V27.83H211.901V34.72H213.121V32.18C213.531 32.77 214.151 33.12 214.921 33.12C216.291 33.12 217.291 32 217.291 30.41C217.291 28.83 216.291 27.71 214.921 27.71ZM214.591 32.08C213.731 32.08 213.131 31.38 213.131 30.41C213.131 29.44 213.731 28.75 214.591 28.75C215.461 28.75 216.081 29.44 216.081 30.41C216.081 31.38 215.461 32.08 214.591 32.08ZM222.325 26.01V28.63C221.915 28.05 221.295 27.71 220.535 27.71C219.165 27.71 218.165 28.83 218.165 30.41C218.165 32 219.165 33.12 220.535 33.12C221.295 33.12 221.915 32.78 222.325 32.2V33H223.545V26.01H222.325ZM220.865 32.08C219.995 32.08 219.375 31.38 219.375 30.41C219.375 29.44 219.995 28.75 220.865 28.75C221.725 28.75 222.325 29.44 222.325 30.41C222.325 31.38 221.725 32.08 220.865 32.08ZM226.478 27.4C226.478 27.05 226.698 26.8 226.988 26.8C227.198 26.8 227.388 26.88 227.498 26.99L227.848 26.21C227.558 25.96 227.138 25.8 226.748 25.8C225.888 25.8 225.288 26.42 225.288 27.29V27.83H224.538V28.84H225.288V33H226.478V28.84H227.648V27.83H226.478V27.4ZM229.239 34.42C229.909 33.7 230.199 33.18 230.199 32.64C230.199 32.01 229.869 31.55 229.359 31.55C228.929 31.55 228.579 31.91 228.579 32.33C228.579 32.76 228.919 33.12 229.339 33.12C229.259 33.44 229.059 33.76 228.759 34.06L229.239 34.42ZM235.023 33.12C235.443 33.12 235.793 32.76 235.793 32.32C235.793 31.91 235.443 31.55 235.023 31.55C234.563 31.55 234.223 31.91 234.223 32.32C234.223 32.76 234.563 33.12 235.023 33.12ZM240.987 26.01V28.63C240.577 28.05 239.957 27.71 239.197 27.71C237.827 27.71 236.827 28.83 236.827 30.41C236.827 32 237.827 33.12 239.197 33.12C239.957 33.12 240.577 32.78 240.987 32.2V33H242.207V26.01H240.987ZM239.527 32.08C238.657 32.08 238.037 31.38 238.037 30.41C238.037 29.44 238.657 28.75 239.527 28.75C240.387 28.75 240.987 29.44 240.987 30.41C240.987 31.38 240.387 32.08 239.527 32.08ZM246.08 33.12C247.58 33.12 248.85 31.88 248.85 30.41C248.85 28.94 247.58 27.71 246.08 27.71C244.58 27.71 243.31 28.94 243.31 30.41C243.31 31.88 244.58 33.12 246.08 33.12ZM246.08 32.08C245.22 32.08 244.5 31.32 244.5 30.41C244.5 29.51 245.22 28.75 246.08 28.75C246.93 28.75 247.65 29.51 247.65 30.41C247.65 31.32 246.93 32.08 246.08 32.08ZM252.398 33.12C253.218 33.12 253.908 32.78 254.408 32.25L253.588 31.54C253.298 31.87 252.858 32.08 252.408 32.08C251.558 32.08 250.848 31.32 250.848 30.41C250.848 29.51 251.558 28.75 252.408 28.75C252.848 28.75 253.278 28.96 253.558 29.27L254.378 28.55C253.888 28.04 253.198 27.71 252.418 27.71C250.908 27.71 249.638 28.94 249.638 30.41C249.638 31.88 250.908 33.12 252.398 33.12ZM255.987 34.42C256.657 33.7 256.947 33.18 256.947 32.64C256.947 32.01 256.617 31.55 256.107 31.55C255.677 31.55 255.327 31.91 255.327 32.33C255.327 32.76 255.667 33.12 256.087 33.12C256.007 33.44 255.807 33.76 255.507 34.06L255.987 34.42ZM261.771 33.12C262.191 33.12 262.541 32.76 262.541 32.32C262.541 31.91 262.191 31.55 261.771 31.55C261.311 31.55 260.971 31.91 260.971 32.32C260.971 32.76 261.311 33.12 261.771 33.12ZM267.735 26.01V28.63C267.325 28.05 266.705 27.71 265.945 27.71C264.575 27.71 263.575 28.83 263.575 30.41C263.575 32 264.575 33.12 265.945 33.12C266.705 33.12 267.325 32.78 267.735 32.2V33H268.955V26.01H267.735ZM266.275 32.08C265.405 32.08 264.785 31.38 264.785 30.41C264.785 29.44 265.405 28.75 266.275 28.75C267.135 28.75 267.735 29.44 267.735 30.41C267.735 31.38 267.135 32.08 266.275 32.08ZM272.828 33.12C274.328 33.12 275.598 31.88 275.598 30.41C275.598 28.94 274.328 27.71 272.828 27.71C271.328 27.71 270.058 28.94 270.058 30.41C270.058 31.88 271.328 33.12 272.828 33.12ZM272.828 32.08C271.968 32.08 271.248 31.32 271.248 30.41C271.248 29.51 271.968 28.75 272.828 28.75C273.678 28.75 274.398 29.51 274.398 30.41C274.398 31.32 273.678 32.08 272.828 32.08ZM279.146 33.12C279.966 33.12 280.656 32.78 281.156 32.25L280.336 31.54C280.046 31.87 279.606 32.08 279.156 32.08C278.306 32.08 277.596 31.32 277.596 30.41C277.596 29.51 278.306 28.75 279.156 28.75C279.596 28.75 280.026 28.96 280.306 29.27L281.126 28.55C280.636 28.04 279.946 27.71 279.166 27.71C277.656 27.71 276.386 28.94 276.386 30.41C276.386 31.88 277.656 33.12 279.146 33.12ZM286.855 33L284.915 30.35L286.765 27.83H285.435L284.255 29.44L283.075 27.83H281.735L283.585 30.36L281.645 33H282.975L284.245 31.27L285.505 33H286.855ZM288.061 34.7C289.451 33.64 290.251 32.11 290.251 30.35C290.251 28.58 289.451 27.06 288.061 26L287.431 26.66C288.491 27.74 289.021 28.83 289.021 30.35C289.021 31.86 288.491 32.95 287.431 34.03L288.061 34.7Z" fill="#111827"/>
</svg>
