<svg width="30" height="18" viewBox="0 0 30 18" fill="none" xmlns="http://www.w3.org/2000/svg">
<rect opacity="0.06" width="30" height="18" rx="4" fill="#2566AF"/>
<path d="M13.4534 11.4708H11.8623L12.8567 5.35921H14.4481L13.4534 11.4708ZM10.5237 5.35921L9.00675 9.56279L8.82725 8.6576L8.82741 8.65793L8.29201 5.90948C8.29201 5.90948 8.22728 5.35921 7.53722 5.35921H5.02943L5 5.46269C5 5.46269 5.76689 5.62225 6.6644 6.16124L8.04679 11.4709H9.70465L12.2362 5.35921H10.5237ZM23.039 11.4708H24.5L23.2262 5.35904H21.9471C21.3564 5.35904 21.2126 5.8145 21.2126 5.8145L18.8395 11.4708H20.4982L20.8299 10.563H22.8526L23.039 11.4708ZM21.2881 9.30891L22.1241 7.02181L22.5945 9.30891H21.2881ZM18.9639 6.8289L19.191 5.51647C19.191 5.51647 18.4903 5.25 17.7598 5.25C16.9702 5.25 15.0951 5.59511 15.0951 7.27324C15.0951 8.85214 17.2959 8.87176 17.2959 9.7011C17.2959 10.5304 15.3219 10.3818 14.6704 9.85886L14.4338 11.2311C14.4338 11.2311 15.1443 11.5762 16.2298 11.5762C17.3157 11.5762 18.9537 11.014 18.9537 9.48383C18.9537 7.8948 16.7332 7.74685 16.7332 7.05598C16.7334 6.36494 18.283 6.45371 18.9639 6.8289Z" fill="#2566AF"/>
<path d="M8.82743 8.65761L8.29203 5.90916C8.29203 5.90916 8.22729 5.35889 7.53724 5.35889H5.02943L5 5.46237C5 5.46237 6.20535 5.71217 7.36149 6.6481C8.46696 7.54267 8.82743 8.65761 8.82743 8.65761Z" fill="#E6A540"/>
</svg>
